<?xml version="1.0" standalone="no"?>
<!DOCTYPE svg PUBLIC "-//W3C//DTD SVG 1.1//EN" "http://www.w3.org/Graphics/SVG/1.1/DTD/svg11.dtd" >
<svg xmlns="http://www.w3.org/2000/svg" xmlns:xlink="http://www.w3.org/1999/xlink" version="1.1">
<metadata></metadata>
<defs>
<font id="magistralbold" horiz-adv-x="1552" >
<font-face units-per-em="2048" ascent="1638" descent="-410" />
<missing-glyph horiz-adv-x="477" />
<glyph unicode="&#xfb01;" horiz-adv-x="1275" d="M12 850v235h156q4 113 48 188t125 111.5t169 51t209 14.5q45 0 67 -2v-213q-10 0 -27.5 1t-25.5 1q-59 0 -95 -4t-75 -17.5t-57.5 -46t-18.5 -84.5h299v-235h-299v-850h-319v850h-156zM870 0v1085h320v-1085h-320zM870 1219v215h320v-215h-320z" />
<glyph unicode="&#xfb02;" horiz-adv-x="1273" d="M12 850v235h156q4 113 48 188t125 111.5t169 51t209 14.5q45 0 67 -2v-213q-10 0 -27.5 1t-25.5 1q-59 0 -95 -4t-75 -17.5t-57.5 -46t-18.5 -84.5h299v-235h-299v-850h-319v850h-156zM868 0v1434h320v-1434h-320z" />
<glyph horiz-adv-x="0" />
<glyph unicode="&#xd;" horiz-adv-x="681" />
<glyph unicode=" "  horiz-adv-x="477" />
<glyph unicode="&#x09;" horiz-adv-x="477" />
<glyph unicode="&#xa0;" horiz-adv-x="477" />
<glyph unicode="!" horiz-adv-x="600" d="M113 1434h374l-30 -988h-316zM137 0v313h326v-313h-326z" />
<glyph unicode="&#x22;" horiz-adv-x="933" d="M113 1434h301l-17 -588h-266zM518 1434h303l-18 -588h-266z" />
<glyph unicode="#" horiz-adv-x="1818" d="M63 354l87 221h266l123 299h-267l88 222h267l137 338h256l-137 -338h350l135 338h256l-135 -338h266l-88 -222h-266l-121 -299h264l-88 -223h-264l-143 -352h-258l143 352h-348l-146 -352h-254l142 354h-265zM672 575h350l123 299h-350z" />
<glyph unicode="$" horiz-adv-x="1392" d="M51 1071q0 362 332 363h223v143h185v-143h477v-287h-477v-289l253 -74q162 -47 229.5 -137t67.5 -266q0 -381 -327 -381h-223v-143h-185v143h-538v285h538v290l-313 95q-133 39 -187.5 139t-54.5 262zM418 1053q0 -82 123 -121l65 -21v236h-80q-108 0 -108 -94zM791 285 h71q106 0 107 100q0 82 -115 117l-63 18v-235z" />
<glyph unicode="%" horiz-adv-x="1683" d="M82 1099.5q0 186.5 74.5 266.5t269.5 80t268.5 -80t73.5 -266.5t-73.5 -266t-268.5 -79.5t-269.5 79.5t-74.5 266zM289 1100q0 -90 29.5 -130t107.5 -40t106.5 40t28.5 130t-28.5 130t-106.5 40t-107.5 -40t-29.5 -130zM350 0l783 1434h206l-782 -1434h-207zM915 331.5 q0 186.5 75 266.5t269.5 80t268.5 -80t74 -266.5t-74 -265t-268.5 -78.5t-269.5 78.5t-75 265zM1122 332q0 -90 30 -130t107.5 -40t106.5 40t29 130q0 92 -29 132t-106.5 40t-107.5 -41t-30 -131z" />
<glyph unicode="&#x26;" horiz-adv-x="1585" d="M113 399q0 287 221 318v8q-113 16 -166 105.5t-53 222.5q0 205 90 293t305 88h844v-285h-690q-96 0 -140.5 -26.5t-44.5 -116.5q0 -94 47 -127t148 -33h911v-254h-201v-242q0 -199 -73.5 -274.5t-284.5 -75.5h-514q-205 0 -302 92t-97 307zM477 440q0 -86 43 -120.5 t133 -34.5h275q59 0 76.5 16t17.5 66v225h-383q-80 0 -121 -32t-41 -120z" />
<glyph unicode="'" horiz-adv-x="530" d="M113 1434h305l-21 -588h-266z" />
<glyph unicode="(" horiz-adv-x="800" d="M113 293v530q0 315 158.5 470t457.5 155v-219q-381 0 -381 -406v-530q0 -406 381 -406v-219q-299 0 -457.5 154.5t-158.5 470.5z" />
<glyph unicode=")" horiz-adv-x="800" d="M72 -113q381 0 381 406v530q0 406 -381 406v219q299 0 457.5 -154.5t158.5 -470.5v-530q0 -315 -158.5 -470t-457.5 -155v219z" />
<glyph unicode="*" horiz-adv-x="1026" d="M72 893l268 156l-268 155l84 146l270 -156v311h174v-307l264 154l90 -152l-268 -156l268 -155l-86 -148l-268 156v-311h-174v309l-268 -154z" />
<glyph unicode="+" horiz-adv-x="1316" d="M113 526v222h430v428h231v-428h430v-222h-430v-428h-231v428h-430z" />
<glyph unicode="," horiz-adv-x="649" d="M0 -137l281 469l256 -152l-306 -456z" />
<glyph unicode="-" horiz-adv-x="946" d="M72 416v266h802v-266h-802z" />
<glyph unicode="." horiz-adv-x="552" d="M113 0v315h327v-315h-327z" />
<glyph unicode="/" horiz-adv-x="1048" d="M-10 -346l856 1862h213l-856 -1862h-213z" />
<glyph unicode="0" horiz-adv-x="1359" d="M72 547v352q0 172 32.5 279.5t111.5 167t185.5 80t278.5 20.5t278.5 -20.5t185.5 -80t111.5 -167t32.5 -279.5v-352q0 -176 -32.5 -285.5t-111.5 -170t-185.5 -82t-278.5 -21.5t-278.5 21.5t-185.5 82t-111.5 170t-32.5 285.5zM440 551q0 -156 51.5 -216.5t188.5 -60.5 q139 0 189.5 59.5t50.5 217.5v342q0 150 -50.5 208t-189.5 58q-137 0 -188.5 -59.5t-51.5 -206.5v-342z" />
<glyph unicode="1" horiz-adv-x="720" d="M0 1147v287h401q100 0 153.5 -53.5t53.5 -153.5v-1227h-368v1038q0 55 -13.5 82t-62.5 27h-164z" />
<glyph unicode="2" horiz-adv-x="1333" d="M72 217q0 168 106 234l633 387q82 51 82 166q0 82 -33 112.5t-119 30.5h-579v287h764q182 0 259 -94.5t77 -290.5q0 -176 -44 -264.5t-159 -155.5l-506 -307q-20 -10 -20.5 -22.5t14.5 -12.5h672v-287h-971q-74 0 -125 55.5t-51 161.5z" />
<glyph unicode="3" horiz-adv-x="1339" d="M72 0v279h614q113 0 159 28.5t46 122.5q0 82 -39 121t-137 39h-609v266h590q88 0 128 36t40 118q0 74 -36.5 109.5t-120.5 35.5h-615v279h805q178 0 259 -92.5t81 -280.5q0 -137 -47 -222t-176 -104v-8q137 -8 195.5 -91t58.5 -235q0 -193 -80 -297t-279 -104h-837z" />
<glyph unicode="4" horiz-adv-x="1445" d="M31 461q0 82 21.5 134t72.5 103l674 664q88 88 239 88q211 0 211 -184v-762h197v-287h-199v-217h-366v217h-666q-184 0 -184 244zM377 526q0 -23 26 -22h478v528q0 8 -9 8q-6 0 -24 -20l-453 -461q-18 -18 -18 -33z" />
<glyph unicode="5" horiz-adv-x="1331" d="M72 868v359q0 207 221 207h913v-279h-680q-41 0 -63.5 -18.5t-22.5 -71.5v-88q0 -61 23.5 -88t81.5 -27h368q193 0 270 -104.5t77 -317.5q0 -221 -74 -330.5t-273 -109.5h-827v279h651q145 0 146 163q0 78 -34 116t-112 38h-405q-133 0 -196.5 60.5t-63.5 211.5z" />
<glyph unicode="6" horiz-adv-x="1351" d="M92 389v668q0 377 365 377h751v-279h-579q-84 0 -126 -31.5t-42 -107.5v-137h448q199 0 285 -99.5t86 -310.5q0 -109 -15.5 -186.5t-54.5 -146t-116.5 -102.5t-194.5 -34h-448q-358 0 -359 389zM461 432q0 -84 29.5 -118.5t115.5 -34.5h139q158 0 158 172q0 82 -38 121.5 t-132 39.5h-272v-180z" />
<glyph unicode="7" horiz-adv-x="1126" d="M-20 1147v287h995q172 0 172 -174q0 -106 -53 -191l-658 -1069h-405l692 1077q20 33 20 49q0 20 -47 21h-716z" />
<glyph unicode="8" horiz-adv-x="1359" d="M72 383q0 160 48 241t189 103v8q-102 14 -153.5 97t-51.5 204q0 129 28 209t91.5 121t141 54.5t204.5 13.5h219q127 0 205 -13.5t142.5 -54.5t92 -121t27.5 -209q0 -264 -204 -301v-8q135 -23 186 -105.5t51 -238.5q0 -215 -104.5 -299t-335.5 -84h-336q-221 0 -330.5 85 t-109.5 298zM449 438q0 -84 35.5 -121.5t117.5 -37.5h156q82 0 117.5 37.5t35.5 121.5q0 82 -38.5 118t-118.5 36h-148q-80 0 -118.5 -36t-38.5 -118zM481 1007.5q0 -79.5 29.5 -114.5t105.5 -35h127q76 0 106 35t30 114.5t-32 113.5t-114 34h-106q-82 0 -114 -34 t-32 -113.5z" />
<glyph unicode="9" horiz-adv-x="1351" d="M72 965q0 109 15 186.5t54 146t117 102.5t195 34h448q358 0 359 -392v-667q0 -375 -365 -375h-752v279h580q84 0 126 31.5t42 109.5v133h-449q-199 0 -284.5 100.5t-85.5 311.5zM449 983q0 -82 38.5 -123t130.5 -41h273v182q0 84 -30 119t-116 35h-139q-158 0 -157 -172z " />
<glyph unicode=":" horiz-adv-x="552" d="M113 0v313h327v-313h-327zM113 772v313h327v-313h-327z" />
<glyph unicode=";" horiz-adv-x="649" d="M0 -137l281 469l256 -152l-306 -456zM113 772v313h327v-313h-327z" />
<glyph unicode="&#x3c;" horiz-adv-x="1320" d="M113 645l1095 555v-252l-655 -303l655 -303v-252z" />
<glyph unicode="=" horiz-adv-x="1318" d="M113 510v274h1093v-274h-1093z" />
<glyph unicode="&#x3e;" horiz-adv-x="1320" d="M113 90v252l655 303l-655 303v252l1095 -555z" />
<glyph unicode="?" horiz-adv-x="987" d="M0 1147v287h588q172 0 255 -81t83 -266q0 -121 -43 -202.5t-146 -147.5l-129 -82q-90 -57 -90 -135v-74h-325v95q0 88 36.5 139t118.5 102l98 62q59 37 81 70.5t22 101.5q0 76 -35 103.5t-113 27.5h-401zM193 0v313h325v-313h-325z" />
<glyph unicode="@" horiz-adv-x="2048" d="M113 549q0 240 32.5 400.5t115.5 273t222.5 164t352.5 51.5h399q391 0 545.5 -194.5t154.5 -610.5q0 -88 -2 -140.5t-11 -139.5t-30.5 -139t-58.5 -107.5t-98.5 -82t-143.5 -26.5q-100 0 -180 46t-102 138q-100 -184 -353 -184q-238 0 -332 134t-94 392q0 252 97.5 397.5 t339.5 145.5h288q98 0 146.5 -37t48.5 -147v-498q0 -102 40 -146t97 -44q23 0 41.5 8t30.5 28.5t21.5 41t14.5 57.5t8 63.5t5 76.5t2 77.5v85.5q0 168 -17.5 271.5t-69.5 180t-145.5 108.5t-242.5 32h-393q-135 0 -225.5 -25.5t-145.5 -72t-85 -135.5t-39 -187t-9 -256 q0 -109 2 -176.5t12 -153.5t29.5 -138t54.5 -107.5t86 -85t126 -49t173 -19.5h600v-213h-616q-170 0 -293 41t-199.5 113.5t-122 194.5t-61.5 260t-16 333zM772 526q0 -57 2 -95t13.5 -83t31 -71.5t55 -44t87.5 -17.5q119 0 187.5 84t68.5 219v262q0 70 -87 70h-116 q-137 0 -189.5 -80t-52.5 -244z" />
<glyph unicode="A" d="M-41 0l535 1282q37 90 97 129t185 39q106 0 173 -35t108 -133l536 -1282h-387l-129 328h-604l-129 -328h-385zM563 606h424l-182 455q-16 45 -29 45q-15 0 -31 -45z" />
<glyph unicode="B" horiz-adv-x="1542" d="M113 219v993q0 221 217 222h749q184 0 269.5 -96.5t85.5 -301.5q0 -266 -209 -301v-8q131 -18 183 -100t52 -230q0 -199 -77.5 -298t-282.5 -99h-770q-217 0 -217 219zM481 381q0 -61 20.5 -81.5t82.5 -20.5h342q84 0 120.5 35.5t36.5 119.5t-35.5 120t-113.5 36h-453 v-209zM481 856h443q76 0 108.5 34t32.5 118q0 78 -34 112.5t-109 34.5h-349q-53 0 -72.5 -19.5t-19.5 -72.5v-207z" />
<glyph unicode="C" horiz-adv-x="1347" d="M72 716.5q0 360.5 136 539t480 178.5h592v-287h-410q-248 0 -334.5 -86t-86.5 -344t87 -344t334 -86h430v-287h-612q-344 0 -480 178t-136 538.5z" />
<glyph unicode="D" horiz-adv-x="1562" d="M113 219v993q0 221 217 222h575q174 0 293 -51.5t181.5 -152t87 -222t24.5 -291.5q0 -168 -24.5 -291t-85 -223.5t-175 -151.5t-282.5 -51h-594q-217 0 -217 219zM481 389q0 -57 21.5 -79.5t81.5 -22.5h84q252 0 349 88t97 342t-97 342t-349 88h-84q-59 0 -81 -23 t-22 -80v-655z" />
<glyph unicode="E" horiz-adv-x="1394" d="M113 219v993q0 221 217 222h985v-279h-737q-53 0 -75 -21.5t-22 -74.5v-199h815v-266h-815v-219q0 -53 21.5 -74.5t75.5 -21.5h745v-279h-993q-217 0 -217 219z" />
<glyph unicode="F" horiz-adv-x="1333" d="M113 0v1212q0 221 217 222h983v-287h-735q-53 0 -75 -21.5t-22 -74.5v-191h627v-287h-627v-573h-368z" />
<glyph unicode="G" horiz-adv-x="1521" d="M72 716.5q0 360.5 136 539t480 178.5h729v-287h-588q-217 0 -298.5 -90t-81.5 -340t81.5 -340t298.5 -90h156q53 0 74.5 21.5t21.5 74.5v346h369v-510q0 -219 -217 -219h-545q-344 0 -480 178t-136 538.5z" />
<glyph unicode="H" horiz-adv-x="1591" d="M113 0v1434h368v-549h629v549h369v-1434h-369v598h-629v-598h-368z" />
<glyph unicode="I" horiz-adv-x="593" d="M113 0v1434h368v-1434h-368z" />
<glyph unicode="J" horiz-adv-x="1019" d="M0 0v287h213q176 0 251 76.5t75 257.5v813h368v-938q0 -223 -130 -359.5t-357 -136.5h-420z" />
<glyph unicode="K" horiz-adv-x="1548" d="M113 0v1434h368v-1434h-368zM551 735q0 92 57 160l465 539h443l-560 -590q-55 -55 -55 -105q0 -51 72 -123l616 -616h-452l-516 551q-70 76 -70 184z" />
<glyph unicode="L" horiz-adv-x="1314" d="M113 219v1215h368v-1051q0 -53 21.5 -74.5t75.5 -21.5h737v-287h-985q-217 0 -217 219z" />
<glyph unicode="M" horiz-adv-x="2113" d="M113 0v1229q0 68 28.5 115t76.5 68.5t92 29.5t93 8q236 0 312 -211l301 -827q20 -60 41 -60q20 0 41 60l301 827q76 211 309 211q293 0 293 -221v-1229h-369l13 993q0 45 -23 45q-13 0 -31 -49l-295 -823q-35 -96 -82 -139t-157 -43q-113 0 -160 43t-82 139l-293 823 q-18 49 -30 49q-20 0 -21 -45l10 -993h-368z" />
<glyph unicode="N" horiz-adv-x="1693" d="M113 0v1225q0 113 74.5 169t195.5 56q182 0 264 -123l563 -850q2 -2 7.5 -11t8.5 -12t9 -7.5t12 -4.5q23 0 23 35v957h311v-1221q0 -92 -60.5 -160.5t-201.5 -68.5q-186 0 -272 131l-560 841q-23 35 -38 35q-25 0 -25 -41v-950h-311z" />
<glyph unicode="O" horiz-adv-x="1667" d="M72 717q0 225 37.5 366.5t133 223.5t232.5 112.5t358.5 30.5t358.5 -30.5t232.5 -112.5t133 -223.5t37.5 -366.5t-37.5 -366.5t-133 -224.5t-232.5 -112.5t-358.5 -29.5t-358.5 29.5t-232.5 112.5t-133 224.5t-37.5 366.5zM449 717q0 -256 80.5 -351.5t304 -95.5 t304.5 95.5t81 351.5t-81 351t-304.5 95t-304 -95t-80.5 -351z" />
<glyph unicode="P" horiz-adv-x="1540" d="M113 0v1212q0 221 217 222h762q117 0 194.5 -34t118.5 -102.5t57.5 -151.5t16.5 -198q0 -240 -83 -364.5t-304 -124.5h-611v-459h-368zM481 745h420q113 0 157 46.5t44 156.5q0 109 -44 154t-157 45h-323q-53 0 -75 -21.5t-22 -74.5v-306z" />
<glyph unicode="Q" horiz-adv-x="1689" d="M72 717q0 225 37.5 366.5t133 223.5t232.5 112.5t358.5 30.5t358.5 -30.5t232.5 -112.5t133 -223.5t37.5 -366.5q0 -289 -114 -432v-9l184 13v-289h-852q-215 0 -346 27.5t-225.5 106.5t-132 218.5t-37.5 364.5zM449 717q0 -252 79.5 -341t305 -89t305.5 89t80 341 q0 256 -81 351t-304.5 95t-304 -95t-80.5 -351z" />
<glyph unicode="R" horiz-adv-x="1568" d="M113 0v1212q0 221 217 222h766q213 0 298 -117t85 -354q0 -494 -326 -494h-102v-10l456 -459h-452l-324 373q-8 10 -32.5 35.5t-37 40t-29 37t-23.5 45t-7 44.5v33q0 74 51.5 101.5t159.5 27.5h121q98 0 133 49.5t35 163.5q0 111 -39 154t-143 43h-342q-53 0 -75 -21.5 t-22 -74.5v-1051h-368z" />
<glyph unicode="S" horiz-adv-x="1413" d="M61 1071q0 362 332 363h885v-287h-741q-100 0 -101 -94q0 -86 115 -121l504 -148q162 -47 229.5 -137t67.5 -266q0 -381 -328 -381h-946v287h794q45 0 70 19.5t29 36.5t4 42q0 82 -111 117l-561 168q-133 39 -187.5 139t-54.5 262z" />
<glyph unicode="T" horiz-adv-x="1433" d="M0 1147v287h1434v-287h-533v-1147h-369v1147h-532z" />
<glyph unicode="U" horiz-adv-x="1560" d="M113 547v887h368v-869q0 -154 73 -224.5t226.5 -70.5t226 71t72.5 224v869h369v-887q0 -309 -167 -436t-501 -127t-500.5 127t-166.5 436z" />
<glyph unicode="V" horiz-adv-x="1527" d="M-41 1434h393l383 -1065q10 -31 29 -31q14 0 29 31l383 1065h393l-510 -1258q-37 -90 -102.5 -141t-192.5 -51q-219 0 -297 192z" />
<glyph unicode="W" horiz-adv-x="2281" d="M-20 1434h372l260 -985q10 -43 29 -43q15 -1 27 34l241 858q43 152 231.5 152t231.5 -152l240 -858q12 -35 26 -34q18 0 31 43l260 985h373l-348 -1203q-39 -139 -101.5 -193t-189.5 -54q-133 0 -192.5 53t-88.5 162l-217 776q-12 37 -24.5 37t-24.5 -37l-217 -776 q-29 -109 -88 -162t-193 -53q-127 0 -190 55t-102 192z" />
<glyph unicode="X" horiz-adv-x="1437" d="M-41 0l549 727l-531 707h437l305 -451l305 451h438l-530 -707l547 -727h-439l-321 469l-322 -469h-438z" />
<glyph unicode="Y" horiz-adv-x="1499" d="M-47 1434h393l404 -686l403 686h393l-614 -1016v-418h-367v418z" />
<glyph unicode="Z" horiz-adv-x="1339" d="M14 168q0 129 113 242l676 675q25 25 24 41q0 20 -39 21h-714v287h1071q180 0 180 -170q0 -53 -16.5 -96.5t-34 -65t-51.5 -55.5l-701 -707q-20 -20 -20 -33q0 -20 24 -20h781v-287h-1065q-31 0 -52.5 1t-58.5 10t-59.5 25.5t-40 50.5t-17.5 81z" />
<glyph unicode="[" horiz-adv-x="802" d="M113 -332v1780h618v-219h-381v-1342h381v-219h-618z" />
<glyph unicode="\" horiz-adv-x="1048" d="M-10 1516h213l856 -1864h-213z" />
<glyph unicode="]" horiz-adv-x="802" d="M72 -113h381v1342h-381v219h618v-1780h-618v219z" />
<glyph unicode="^" horiz-adv-x="1232" d="M113 1204l387 324q51 45 118 45q63 0 119 -45l383 -324l-129 -153l-307 268q-33 29 -65.5 29t-65.5 -29l-307 -268z" />
<glyph unicode="_" horiz-adv-x="1150" d="M72 0v266h1007v-266h-1007z" />
<glyph unicode="`" horiz-adv-x="655" d="M72 1454l149 188l363 -299l-150 -186z" />
<glyph unicode="a" horiz-adv-x="1222" d="M55 340q0 338 269 338h493v47q0 131 -137 131h-549v229h670q158 0 247 -94t89 -250v-536q0 -205 -205 -205h-608q-143 0 -206 83t-63 257zM379 338q0 -117 94 -117h272q39 0 55.5 16.5t16.5 55.5v164h-342q-96 0 -96 -119z" />
<glyph unicode="b" horiz-adv-x="1220" d="M86 205v1229h320v-349h313q248 0 347 -138t99 -404.5t-99 -404.5t-347 -138h-428q-205 0 -205 205zM406 317q0 -47 18 -64t63 -17h140q129 0 170 77.5t41 229.5q0 68 -6.5 115t-27 95t-63.5 72.5t-110 24.5h-225v-533z" />
<glyph unicode="c" horiz-adv-x="1089" d="M55 542.5q0 268.5 98.5 405.5t358.5 137h518v-235h-395q-145 0 -198.5 -77t-53.5 -230.5t53 -230t199 -76.5h418v-236h-541q-260 0 -358.5 137t-98.5 405.5z" />
<glyph unicode="d" horiz-adv-x="1220" d="M55 542.5q0 266.5 99.5 404.5t347.5 138h313v349h320v-1229q0 -205 -205 -205h-428q-248 0 -347.5 138t-99.5 404.5zM383 543q0 -72 7 -120t27.5 -95t64.5 -69.5t114 -22.5h137q45 0 63.5 17t18.5 64v533h-223q-53 0 -93 -17.5t-61.5 -45t-34 -70.5t-16.5 -82t-4 -92z " />
<glyph unicode="e" horiz-adv-x="1216" d="M55 547q0 176 24.5 280.5t92.5 167t167 83t269 20.5q147 0 239.5 -15.5t169.5 -60.5t110.5 -133t33.5 -227q0 -225 -170 -226h-612q0 -106 46 -156.5t171 -50.5h528v-229h-655q-252 0 -333 116.5t-81 430.5zM379 657h397q59 0 60 66q0 76 -69 110.5t-159 34.5 q-119 0 -174 -47t-55 -164z" />
<glyph unicode="f" horiz-adv-x="790" d="M8 850v235h156q4 113 48 188t125 111.5t169 51t209 14.5q45 0 67 -2v-213q-25 2 -53 2q-59 0 -95 -4t-75 -17.5t-57.5 -46t-18.5 -84.5h299v-235h-299v-850h-319v850h-156z" />
<glyph unicode="g" horiz-adv-x="1232" d="M55 542.5q0 266.5 99.5 404.5t347.5 138h440q205 0 205 -204v-789q0 -238 -112.5 -346t-358.5 -108h-545v225h490q180 0 206 137h-325q-248 0 -347.5 138t-99.5 404.5zM383 543q0 -53 4 -92t16.5 -82t34 -71t61.5 -45t93 -17h235v532q0 47 -18 64.5t-64 17.5h-149 q-70 0 -114 -22.5t-64.5 -69.5t-27.5 -95.5t-7 -119.5z" />
<glyph unicode="h" horiz-adv-x="1245" d="M86 0v1434h320v-349h317q203 0 319.5 -96t116.5 -295v-694h-319v612q0 125 -52.5 181.5t-173.5 56.5h-208v-850h-320z" />
<glyph unicode="i" horiz-adv-x="491" d="M86 0v1085h320v-1085h-320zM86 1200v234h320v-234h-320z" />
<glyph unicode="j" horiz-adv-x="638" d="M-82 -131q154 0 234.5 58.5t80.5 201.5v956h320v-1022q0 -82 -16.5 -145t-42 -107t-71.5 -75t-93 -49.5t-119 -27.5t-136.5 -12t-156.5 -3v225zM233 1219v215h320v-215h-320z" />
<glyph unicode="k" horiz-adv-x="1216" d="M86 0v1434h320v-1434h-320zM471 561q0 82 70 168l288 356h359l-369 -436q-33 -41 -33 -78q0 -41 48 -96l411 -475h-375l-329 389q-70 84 -70 172z" />
<glyph unicode="l" horiz-adv-x="491" d="M86 0v1434h320v-1434h-320z" />
<glyph unicode="m" horiz-adv-x="1761" d="M86 0v881q0 204 203 204h2h958q201 0 313.5 -95t112.5 -296v-694h-319v612q0 125 -51.5 181.5t-171.5 56.5h-93v-850h-319v850h-244q-39 0 -55 -16.5t-16 -55.5v-778h-320z" />
<glyph unicode="n" horiz-adv-x="1245" d="M86 0v881q0 204 203 204h2h442q201 0 313.5 -95t112.5 -296v-694h-319v612q0 125 -52.5 181.5t-173.5 56.5h-137q-39 0 -55 -16.5t-16 -55.5v-778h-320z" />
<glyph unicode="o" horiz-adv-x="1314" d="M55 543q0 319 137.5 437t465 118t465 -118t137.5 -437q0 -322 -137.5 -438.5t-465 -116.5t-465 116.5t-137.5 438.5zM383 543q0 -168 59.5 -244t215 -76t215 76t59.5 244t-59.5 243.5t-215 75.5t-215 -75.5t-59.5 -243.5z" />
<glyph unicode="p" horiz-adv-x="1220" d="M86 -348v1229q0 204 205 204h426q248 0 348 -139t100 -403t-100 -403.5t-348 -139.5h-311v-348h-320zM406 236h225q88 0 136 48t59.5 107.5t11.5 151.5q0 152 -41 229.5t-170 77.5h-140q-45 0 -63 -17.5t-18 -60.5v-536z" />
<glyph unicode="q" horiz-adv-x="1220" d="M55 542.5q0 266.5 99.5 404.5t347.5 138h428q205 0 205 -204v-1229h-320v348h-313q-248 0 -347.5 138t-99.5 404.5zM383 543q0 -53 4 -92t16.5 -82t34 -71t61.5 -45t93 -17h223v536q0 43 -18.5 60.5t-63.5 17.5h-137q-70 0 -114 -22.5t-64.5 -69.5t-27.5 -95.5t-7 -119.5 z" />
<glyph unicode="r" horiz-adv-x="794" d="M86 0v655q0 233 119 331.5t366 98.5h215v-235h-127q-137 0 -195 -70.5t-58 -218.5v-561h-320z" />
<glyph unicode="s" horiz-adv-x="1110" d="M47 797q0 150 73 219t226 69h676v-235h-582q-86 0 -86 -55q0 -39 34 -58.5t99 -40.5l254 -78q82 -25 131.5 -46t98.5 -59t70.5 -95.5t21.5 -136.5q0 -141 -66.5 -211t-210.5 -70h-727v236h603q73 0 73 63q0 22 -12 38.5t-36.5 28t-46.5 18.5t-52.5 14.5t-42.5 11.5 l-221 67q-154 47 -215.5 117t-61.5 203z" />
<glyph unicode="t" horiz-adv-x="794" d="M8 850v235h152v349h319v-349h307v-235h-307v-373q0 -125 59.5 -183t188.5 -58h59v-236h-223q-403 0 -403 360v490h-152z" />
<glyph unicode="u" horiz-adv-x="1261" d="M86 389v696h320v-614q0 -125 53 -181.5t174 -56.5h149q39 0 55.5 16.5t16.5 55.5v780h322v-880q0 -205 -205 -205h-459q-201 0 -313.5 94t-112.5 295z" />
<glyph unicode="v" horiz-adv-x="1230" d="M-20 1085h331l277 -716q16 -39 28 -39q10 0 27 39l277 716h331l-436 -1001q-27 -61 -76 -78.5t-123 -17.5q-47 0 -77.5 4t-67.5 26.5t-55 65.5z" />
<glyph unicode="w" horiz-adv-x="1792" d="M-8 1085h307l184 -714q6 -33 21 -33q12 0 18 31l180 620q31 109 193 109t195 -109l180 -620q6 -31 18 -31q14 0 21 33l184 714h307l-254 -915q-25 -92 -77 -137t-158 -45q-193 0 -234 139l-166 575q-12 35 -16 35t-16 -35l-166 -575q-41 -139 -232 -139q-106 0 -159.5 45 t-77.5 137z" />
<glyph unicode="x" horiz-adv-x="1163" d="M-29 0l424 557l-393 528h365l215 -325l215 325h364l-393 -528l424 -557h-373l-237 354l-238 -354h-373z" />
<glyph unicode="y" horiz-adv-x="1245" d="M-29 1085h328l322 -761l329 761h324l-647 -1435h-324l168 352z" />
<glyph unicode="z" horiz-adv-x="1085" d="M33 176q0 109 86 184l514 455q16 14 16 21q0 14 -20 14h-559v235h813q78 0 124 -44t46 -123q0 -111 -80 -183l-510 -465q-16 -12 -17 -24q0 -10 19 -10h575v-236h-841q-66 0 -116 43t-50 133z" />
<glyph unicode="{" horiz-adv-x="663" d="M31 485v193q51 4 78.5 39t27.5 86v205q0 236 102.5 335t352.5 99v-219q-217 0 -217 -199v-242q-1 -157 -101 -192v-17q100 -35 101 -192v-242q0 -199 217 -198v-220q-250 2 -352.5 100.5t-102.5 334.5v204q0 51 -27.5 86t-78.5 39z" />
<glyph unicode="|" horiz-adv-x="399" d="M92 -348v1864h215v-1864h-215z" />
<glyph unicode="}" horiz-adv-x="663" d="M72 -59q215 0 215 198v242q0 157 100 192v17q-100 35 -100 192v242q0 199 -215 199v219q250 0 352 -99.5t102 -334.5v-205q0 -51 28 -86t79 -39v-193q-51 -4 -79 -38.5t-28 -86.5v-204q0 -236 -102 -334t-352 -101v220z" />
<glyph unicode="~" horiz-adv-x="1306" d="M113 768q61 90 148 150.5t183 60.5q82 0 152 -35l113 -55q70 -35 133 -35q111 0 209 143l143 -120q-164 -229 -352 -230q-88 0 -162 39l-94 47q-74 35 -133.5 35t-103.5 -33t-95 -92z" />
<glyph unicode="&#xa1;" horiz-adv-x="602" d="M113 0l30 987h316l30 -987h-376zM137 1120v314h328v-314h-328z" />
<glyph unicode="&#xa2;" horiz-adv-x="1093" d="M55 542.5q0 268.5 98.5 405.5t358.5 137h72v144h176v-144h270v-235h-270v-614h293v-236h-293v-143h-176v143h-72q-260 0 -358.5 137t-98.5 405.5zM383 542.5q0 -139.5 42 -215t159 -89.5v608q-117 -12 -159 -88t-42 -215.5z" />
<glyph unicode="&#xa3;" horiz-adv-x="1327" d="M0 748v184h135q0 285 99.5 393.5t336.5 108.5h363v-287h-238q-123 0 -157.5 -42t-34.5 -173h432v-184h-432v-365q0 -53 20.5 -74.5t73.5 -21.5h729v-287h-977q-215 0 -215 219v529h-135z" />
<glyph unicode="&#xa4;" horiz-adv-x="1339" d="M113 260l141 141q-72 103 -72 250q0 143 74 256l-143 142l161 161l142 -143q106 74 254 74q141 0 250 -72l143 143l164 -161l-144 -144q72 -115 72 -254q0 -137 -74 -250l142 -143l-160 -160l-141 142q-111 -74 -252 -74q-139 0 -254 74l-144 -144zM459 653 q0 -86 61.5 -147.5t149.5 -61.5q86 0 147.5 61.5t61.5 147.5q0 88 -61.5 149.5t-147.5 61.5q-88 0 -149.5 -61.5t-61.5 -149.5z" />
<glyph unicode="&#xa5;" horiz-adv-x="1347" d="M-61 1434h393l342 -625l342 625h393l-377 -648h236v-202h-353l-57 -101v-67h410v-201h-410v-215h-369v215h-409v201h409v67l-57 101h-352v202h233z" />
<glyph unicode="&#xa6;" horiz-adv-x="399" d="M92 -129v614h215v-614h-215zM92 901v615h215v-615h-215z" />
<glyph unicode="&#xa7;" horiz-adv-x="1075" d="M92 575q0 125 75 205t195 90l-139 119q-94 78 -94 205q0 123 76 181.5t205 58.5h471v-248h-359q-47 0 -65.5 -8.5t-18.5 -35t62 -77.5l364 -307q119 -98 119 -254q0 -123 -79 -195.5t-206 -77.5l125 -106q121 -100 121 -231q0 -123 -84 -182.5t-215 -59.5h-450v248h323 q27 0 41 1t34.5 5t30 14t9.5 29q0 27 -72 88l-360 305q-109 90 -109 233zM371 578q0 -68 57 -115l70 -57q207 0 207 114q0 63 -52 105l-90 69q-55 0 -92 -6t-68.5 -33.5t-31.5 -76.5z" />
<glyph unicode="&#xa8;" horiz-adv-x="999" d="M113 1198v236h286v-236h-286zM600 1198v236h287v-236h-287z" />
<glyph unicode="&#xa9;" horiz-adv-x="1710" d="M113 721q0 395 174 562t569 167t568 -167t173 -564q0 -395 -174 -565t-567 -170q-395 0 -569 170t-174 567zM326 721q0 -293 114.5 -421t415.5 -128q297 0 412.5 128t115.5 419q0 293 -115.5 418t-412.5 125q-299 0 -414.5 -125t-115.5 -416zM489 723q0 182 68 281.5 t240 99.5h331v-184h-229q-102 0 -133 -44.5t-31 -152.5q0 -106 30 -149.5t126 -43.5h264v-184h-362q-170 0 -237 99.5t-67 277.5z" />
<glyph unicode="&#xaa;" horiz-adv-x="856" d="M113 997.5q0 200.5 168 200.5h276v16q0 41 -19.5 58.5t-66.5 17.5h-313v144h374q209 0 209 -220v-296q0 -121 -120 -121h-340q-168 0 -168 200.5zM121 512v143h612v-143h-612zM301 1004q0 -63 53 -64h156q27 0 37 8t10 35v80h-203q-53 0 -53 -59z" />
<glyph unicode="&#xab;" horiz-adv-x="1200" d="M113 575q0 80 47 142l289 389l208 -160l-215 -307q-23 -37 -22 -64q0 -37 22 -63l215 -309l-208 -158l-289 387q-47 61 -47 143zM606 575q0 47 51 117l217 281l213 -160l-139 -188q-25 -31 -24 -50q0 -14 24 -49l139 -202l-213 -158l-217 291q-51 70 -51 118z" />
<glyph unicode="&#xac;" horiz-adv-x="1273" d="M113 545v221h1048v-528h-237v307h-811z" />
<glyph unicode="&#xad;" horiz-adv-x="946" d="M72 416v266h802v-266h-802z" />
<glyph unicode="&#xae;" horiz-adv-x="1128" d="M113 1005.5q0 243.5 101 347t351 103.5q238 0 344.5 -100.5t106.5 -349.5q0 -246 -104.5 -349.5t-352.5 -103.5q-236 0 -341 104.5t-105 348zM244 1008q0 -184 64.5 -260t248.5 -76q182 0 255 72.5t73 256.5q0 190 -63.5 263t-254.5 73q-182 0 -252.5 -69.5t-70.5 -259.5 zM334 786v396q0 41 19.5 54t74.5 13h219q82 0 114 -34.5t32 -127.5q0 -150 -101 -149h-33l140 -152h-164q-6 8 -29.5 35t-35 40t-28 36t-23.5 41t-7 33q0 59 49 59h35q31 0 44 11.5t13 46t-14 47t-47 12.5h-86q-25 0 -33 -8.5t-8 -34.5v-318h-131z" />
<glyph unicode="&#xaf;" horiz-adv-x="786" d="M72 1219v198h643v-198h-643z" />
<glyph unicode="&#xb0;" horiz-adv-x="655" d="M92 1343q0 96 69.5 165t166 69t166 -68.5t69.5 -165.5q0 -98 -69.5 -166.5t-166 -68.5t-166 68.5t-69.5 166.5zM205 1343.5q0 -51.5 35.5 -87t87 -35.5t87.5 35.5t36 87t-36 86t-87.5 34.5t-87 -34.5t-35.5 -86z" />
<glyph unicode="&#xb1;" horiz-adv-x="1318" d="M113 92v219h1093v-219h-1093zM113 852v219h430v430h233v-430h430v-219h-430v-430h-233v430h-430z" />
<glyph unicode="&#xb2;" horiz-adv-x="888" d="M92 737q0 100 66 140l360 219q31 18 40 35.5t9 48.5q0 39 -21.5 54t-72.5 15h-330v185h457q109 0 153 -57.5t44 -166.5q0 -102 -28 -154t-87 -85l-268 -160q-10 -4 -10.5 -12t8.5 -8h362v-185h-579q-102 0 -103 131z" />
<glyph unicode="&#xb3;" horiz-adv-x="874" d="M92 606v185h357q55 0 78.5 15t23.5 62q0 43 -23.5 57.5t-78.5 14.5h-338v172h327q96 0 97 72q0 66 -97 65h-336v185h461q205 0 205 -213q0 -164 -135 -185v-8q78 -6 113.5 -51t35.5 -137q0 -115 -48 -174.5t-163 -59.5h-479z" />
<glyph unicode="&#xb4;" horiz-adv-x="655" d="M72 1343l360 299l152 -188l-363 -297z" />
<glyph unicode="&#xb5;" horiz-adv-x="1306" d="M113 -365v1450h319v-643q0 -96 59.5 -158.5t157.5 -62.5q88 0 156.5 62.5t68.5 152.5v649h320v-1085h-305v147q-72 -160 -242 -159q-68 0 -132 34.5t-99 110.5v-498h-303z" />
<glyph unicode="&#xb6;" horiz-adv-x="1503" d="M113 1014q0 207 96 313.5t311 106.5h912v-240h-138v-1542h-250v1542h-131v-1542h-249v940h-144q-217 0 -312 105.5t-95 316.5zM369 1013.5q0 -98.5 41 -141.5t127 -43h127v365h-127q-86 0 -127 -41t-41 -139.5z" />
<glyph unicode="&#xb7;" horiz-adv-x="552" d="M113 512v315h327v-315h-327z" />
<glyph unicode="&#xb8;" horiz-adv-x="516" d="M72 -268h149q51 0 51 28q0 33 -51 33h-69q-70 0 -70 53q0 23 12 48l51 106h140l-27 -57q-6 -8 -6 -15q0 -10 16 -10h23q154 0 153 -156q0 -162 -188 -161h-184v131z" />
<glyph unicode="&#xb9;" horiz-adv-x="497" d="M20 1249v185h244q123 0 123 -123v-707h-225v584q0 61 -51 61h-91z" />
<glyph unicode="&#xba;" horiz-adv-x="901" d="M113 1118q0 180 78.5 259t259 79t259 -79t78.5 -259t-78.5 -258t-259 -78t-259 78t-78.5 258zM121 524v144h659v-144h-659zM268 1118.5q0 -104.5 40 -148.5t142.5 -44t142.5 44t40 148.5t-41 149.5t-141.5 45t-141.5 -45t-41 -149.5z" />
<glyph unicode="&#xbb;" horiz-adv-x="1200" d="M113 324l139 202q25 35 24 49q0 18 -24 50l-139 188l213 160l217 -281q51 -66 51 -117q0 -49 -51 -118l-217 -291zM543 203l215 309q23 33 22 63q0 27 -22 64l-215 307l209 160l288 -389q47 -61 47 -142q0 -82 -47 -143l-288 -387z" />
<glyph unicode="&#xbc;" horiz-adv-x="1708" d="M113 1249v185h243q123 0 123 -123v-707h-225v584q0 61 -51 61h-90zM260 0l780 1434h197l-780 -1434h-197zM764 266q0 88 53 137l389 383q51 51 146 52q39 0 64.5 -5.5t48 -32t22.5 -73.5v-428h108v-180h-108v-119h-225v119h-388q-111 0 -110 147zM1012 311q0 -12 18 -12 h264v285q0 10 -4 10t-18 -14l-248 -250q-12 -12 -12 -19z" />
<glyph unicode="&#xbd;" horiz-adv-x="1783" d="M113 1249v185h243q123 0 123 -123v-707h-225v584q0 61 -51 61h-90zM260 0l780 1434h197l-780 -1434h-197zM967 131q0 100 65 139l361 219q31 18 40 36t9 48q0 39 -21.5 54.5t-72.5 15.5h-330v184h457q109 0 152.5 -57t43.5 -166q0 -102 -27.5 -154.5t-87.5 -84.5 l-268 -160q-10 -4 -10 -12.5t8 -8.5h363v-184h-580q-102 0 -102 131z" />
<glyph unicode="&#xbe;" horiz-adv-x="1982" d="M113 606v185h356q55 0 78.5 15t23.5 62q0 43 -23.5 57.5t-78.5 14.5h-338v172h328q96 0 96 72q0 66 -96 65h-336v185h461q205 0 204 -213q0 -164 -135 -185v-8q78 -6 114 -51t36 -137q0 -115 -48 -174.5t-163 -59.5h-479zM535 0l780 1434h196l-780 -1434h-196zM1038 266 q0 88 54 137l389 383q51 51 145 52q39 0 64.5 -5.5t48 -32t22.5 -73.5v-428h109v-180h-109v-119h-225v119h-387q-111 0 -111 147zM1286 311q0 -12 19 -12h264v285q0 10 -4 10t-19 -14l-248 -250q-12 -12 -12 -19z" />
<glyph unicode="&#xbf;" horiz-adv-x="991" d="M72 346q0 121 40 204t140 144l131 84q86 53 86 135v74h328v-96q0 -88 -37 -139.5t-117 -102.5l-98 -61q-59 -37 -80 -70t-21 -100q0 -76 34 -103.5t112 -27.5h401v-287h-590q-172 0 -250.5 80t-78.5 266zM469 1118v316h328v-316h-328z" />
<glyph unicode="&#xc0;" d="M-41 0l535 1282q37 90 97 129t185 39q106 0 173 -35t108 -133l536 -1282h-387l-129 328h-604l-129 -328h-385zM512 1812l158 189l370 -299l-157 -186zM563 606h424l-182 455q-16 45 -29 45q-15 0 -31 -45z" />
<glyph unicode="&#xc1;" d="M-41 0l535 1282q37 90 97 129t185 39q106 0 173 -35t108 -133l536 -1282h-387l-129 328h-604l-129 -328h-385zM512 1702l369 299l159 -189l-370 -296zM563 606h424l-182 455q-16 45 -29 45q-15 0 -31 -45z" />
<glyph unicode="&#xc2;" d="M-41 0l535 1282q37 90 97 129t185 39q106 0 173 -35t108 -133l536 -1282h-387l-129 328h-604l-129 -328h-385zM352 1669l307 240q47 35 117 35q74 0 117 -35l307 -240l-127 -153l-242 196q-27 23 -55 23q-27 0 -55 -23l-240 -196zM563 606h424l-182 455q-16 45 -29 45 q-15 0 -31 -45z" />
<glyph unicode="&#xc3;" d="M-41 0l535 1282q37 90 97 129t185 39q106 0 173 -35t108 -133l536 -1282h-387l-129 328h-604l-129 -328h-385zM322 1638q111 182 292 183q59 0 121 -29l86 -43q78 -39 123 -39q80 0 146 115l141 -96q-123 -199 -297 -199q-76 0 -141 33l-78 39q-70 35 -109 34 q-73 0 -145 -102zM563 606h424l-182 455q-16 45 -29 45q-15 0 -31 -45z" />
<glyph unicode="&#xc4;" d="M-41 0l535 1282q37 90 97 129t185 39q106 0 173 -35t108 -133l536 -1282h-387l-129 328h-604l-129 -328h-385zM371 1542v244h309v-244h-309zM563 606h424l-182 455q-16 45 -29 45q-15 0 -31 -45zM872 1542v244h310v-244h-310z" />
<glyph unicode="&#xc5;" d="M-41 0l535 1282q37 90 97 129t185 39q106 0 173 -35t108 -133l536 -1282h-387l-129 328h-604l-129 -328h-385zM535 1745q0 123 56 180t185 57t185.5 -57t56.5 -180t-56.5 -180.5t-185.5 -57.5t-185 57.5t-56 180.5zM563 606h424l-182 455q-16 45 -29 45q-15 0 -31 -45z M670 1745q0 -115 106.5 -115t106.5 115t-106.5 115t-106.5 -115z" />
<glyph unicode="&#xc6;" horiz-adv-x="2301" d="M-51 0l803 1309q76 125 276 125h1202v-279h-737q-53 0 -74.5 -21.5t-21.5 -74.5v-195h815v-266h-815v-223q0 -53 21.5 -74.5t74.5 -21.5h748v-279h-994q-217 0 -217 219v105h-483l-185 -324h-413zM700 602h330v465q0 70 -10 70q-12 0 -37 -43z" />
<glyph unicode="&#xc7;" horiz-adv-x="1347" d="M72 716.5q0 360.5 136 539t480 178.5h592v-287h-410q-248 0 -334.5 -86t-86.5 -344t87 -344t334 -86h430v-287h-407l-27 -57q-6 -10 -6 -15q0 -10 17 -10h22q152 0 152 -156q0 -162 -187 -161h-184v129h149q51 0 52 30q0 33 -52 33h-69q-70 0 -70 53q0 10 12 48l52 106 h-66q-344 0 -480 178t-136 538.5z" />
<glyph unicode="&#xc8;" horiz-adv-x="1394" d="M113 219v993q0 221 217 222h985v-279h-737q-53 0 -75 -21.5t-22 -74.5v-199h815v-266h-815v-219q0 -53 21.5 -74.5t75.5 -21.5h745v-279h-993q-217 0 -217 219zM432 1812l158 189l371 -299l-158 -186z" />
<glyph unicode="&#xc9;" horiz-adv-x="1394" d="M113 219v993q0 221 217 222h985v-279h-737q-53 0 -75 -21.5t-22 -74.5v-199h815v-266h-815v-219q0 -53 21.5 -74.5t75.5 -21.5h745v-279h-993q-217 0 -217 219zM494 1702l368 299l160 -189l-371 -296z" />
<glyph unicode="&#xca;" horiz-adv-x="1394" d="M113 219v993q0 221 217 222h985v-279h-737q-53 0 -75 -21.5t-22 -74.5v-199h815v-266h-815v-219q0 -53 21.5 -74.5t75.5 -21.5h745v-279h-993q-217 0 -217 219zM326 1669l307 240q47 35 117 35q74 0 116 -35l308 -240l-127 -153l-242 196q-27 23 -55 23q-27 0 -56 -23 l-239 -196z" />
<glyph unicode="&#xcb;" horiz-adv-x="1394" d="M113 219v993q0 221 217 222h985v-279h-737q-53 0 -75 -21.5t-22 -74.5v-199h815v-266h-815v-219q0 -53 21.5 -74.5t75.5 -21.5h745v-279h-993q-217 0 -217 219zM332 1542v244h309v-244h-309zM834 1542v244h309v-244h-309z" />
<glyph unicode="&#xcc;" horiz-adv-x="593" d="M33 1812l157 189l371 -299l-158 -186zM113 0v1434h368v-1434h-368z" />
<glyph unicode="&#xcd;" horiz-adv-x="593" d="M33 1702l368 299l160 -189l-371 -296zM113 0v1434h368v-1434h-368z" />
<glyph unicode="&#xce;" horiz-adv-x="593" d="M-127 1669l307 240q47 35 117 35q74 0 117 -35l307 -240l-127 -153l-242 196q-27 23 -55 23q-27 0 -55 -23l-240 -196zM113 0v1434h368v-1434h-368z" />
<glyph unicode="&#xcf;" horiz-adv-x="673" d="M-51 1542v244h301v-244h-301zM154 0v1434h366v-1434h-366zM424 1542v244h301v-244h-301z" />
<glyph unicode="&#xd0;" horiz-adv-x="1630" d="M-20 586v245h161v381q0 221 217 222h576q170 0 287.5 -52.5t180 -154t89.5 -224t27 -286.5q0 -129 -15.5 -232.5t-55.5 -196.5t-105.5 -154.5t-169 -97.5t-240.5 -36h-574q-217 0 -217 219v367h-161zM508 387q0 -59 22.5 -80.5t79.5 -21.5h60q139 0 222 15t143.5 62.5 t84 131.5t23.5 223t-23.5 223t-84 130t-143.5 61.5t-222 15.5h-60q-57 0 -79.5 -23t-22.5 -80v-213h278v-245h-278v-199z" />
<glyph unicode="&#xd1;" horiz-adv-x="1693" d="M113 0v1225q0 113 74.5 169t195.5 56q182 0 264 -123l563 -850q2 -2 7.5 -11t8.5 -12t9 -7.5t12 -4.5q23 0 23 35v957h311v-1221q0 -92 -60.5 -160.5t-201.5 -68.5q-186 0 -272 131l-560 841q-23 35 -38 35q-25 0 -25 -41v-950h-311zM391 1638q111 182 293 183 q59 0 121 -29l86 -43q78 -39 123 -39q80 0 145 115l141 -96q-123 -199 -296 -199q-76 0 -142 33l-78 39q-70 35 -108 34q-74 0 -146 -102z" />
<glyph unicode="&#xd2;" horiz-adv-x="1667" d="M72 717q0 225 37.5 366.5t133 223.5t232.5 112.5t358.5 30.5t358.5 -30.5t232.5 -112.5t133 -223.5t37.5 -366.5t-37.5 -366.5t-133 -224.5t-232.5 -112.5t-358.5 -29.5t-358.5 29.5t-232.5 112.5t-133 224.5t-37.5 366.5zM449 717q0 -256 80.5 -351.5t304 -95.5 t304.5 95.5t81 351.5t-81 351t-304.5 95t-304 -95t-80.5 -351zM569 1812l158 189l371 -299l-158 -186z" />
<glyph unicode="&#xd3;" horiz-adv-x="1667" d="M72 717q0 225 37.5 366.5t133 223.5t232.5 112.5t358.5 30.5t358.5 -30.5t232.5 -112.5t133 -223.5t37.5 -366.5t-37.5 -366.5t-133 -224.5t-232.5 -112.5t-358.5 -29.5t-358.5 29.5t-232.5 112.5t-133 224.5t-37.5 366.5zM449 717q0 -256 80.5 -351.5t304 -95.5 t304.5 95.5t81 351.5t-81 351t-304.5 95t-304 -95t-80.5 -351zM569 1702l369 299l160 -189l-371 -296z" />
<glyph unicode="&#xd4;" horiz-adv-x="1667" d="M72 717q0 225 37.5 366.5t133 223.5t232.5 112.5t358.5 30.5t358.5 -30.5t232.5 -112.5t133 -223.5t37.5 -366.5t-37.5 -366.5t-133 -224.5t-232.5 -112.5t-358.5 -29.5t-358.5 29.5t-232.5 112.5t-133 224.5t-37.5 366.5zM410 1669l307 240q47 35 117 35q74 0 116 -35 l307 -240l-127 -153l-241 196q-27 23 -55 23q-27 0 -56 -23l-239 -196zM449 717q0 -256 80.5 -351.5t304 -95.5t304.5 95.5t81 351.5t-81 351t-304.5 95t-304 -95t-80.5 -351z" />
<glyph unicode="&#xd5;" horiz-adv-x="1667" d="M72 717q0 225 37.5 366.5t133 223.5t232.5 112.5t358.5 30.5t358.5 -30.5t232.5 -112.5t133 -223.5t37.5 -366.5t-37.5 -366.5t-133 -224.5t-232.5 -112.5t-358.5 -29.5t-358.5 29.5t-232.5 112.5t-133 224.5t-37.5 366.5zM379 1638q111 182 293 183q59 0 121 -29l86 -43 q78 -39 122 -39q80 0 146 115l141 -96q-123 -199 -297 -199q-76 0 -141 33l-78 39q-70 35 -108 34q-74 0 -146 -102zM449 717q0 -256 80.5 -351.5t304 -95.5t304.5 95.5t81 351.5t-81 351t-304.5 95t-304 -95t-80.5 -351z" />
<glyph unicode="&#xd6;" horiz-adv-x="1667" d="M72 717q0 225 37.5 366.5t133 223.5t232.5 112.5t358.5 30.5t358.5 -30.5t232.5 -112.5t133 -223.5t37.5 -366.5t-37.5 -366.5t-133 -224.5t-232.5 -112.5t-358.5 -29.5t-358.5 29.5t-232.5 112.5t-133 224.5t-37.5 366.5zM428 1542v244h309v-244h-309zM449 717 q0 -256 80.5 -351.5t304 -95.5t304.5 95.5t81 351.5t-81 351t-304.5 95t-304 -95t-80.5 -351zM930 1542v244h309v-244h-309z" />
<glyph unicode="&#xd7;" horiz-adv-x="1277" d="M158 338l315 317l-315 316l164 164l315 -316l317 318l166 -164l-319 -318l319 -315l-164 -164l-319 316l-315 -318z" />
<glyph unicode="&#xd8;" horiz-adv-x="1671" d="M51 66l135 127q-113 156 -112 524q0 225 38 366.5t133 223.5t232.5 112.5t358.5 30.5q393 0 557 -115l139 131l88 -94l-137 -131q115 -162 114 -524q0 -225 -37.5 -366.5t-133 -224.5t-232.5 -112.5t-358 -29.5q-401 0 -560 114l-137 -129zM451 717q0 -164 28 -250 l643 616q-82 80 -286 80q-223 0 -304 -95t-81 -351zM545 350q82 -80 291 -80q223 0 304 95.5t81 351.5q0 166 -31 250z" />
<glyph unicode="&#xd9;" horiz-adv-x="1560" d="M113 547v887h368v-869q0 -154 73 -224.5t226.5 -70.5t226 71t72.5 224v869h369v-887q0 -309 -167 -436t-501 -127t-500.5 127t-166.5 436zM475 1812l158 189l371 -299l-158 -186z" />
<glyph unicode="&#xda;" horiz-adv-x="1560" d="M113 547v887h368v-869q0 -154 73 -224.5t226.5 -70.5t226 71t72.5 224v869h369v-887q0 -309 -167 -436t-501 -127t-500.5 127t-166.5 436zM537 1702l368 299l160 -189l-371 -296z" />
<glyph unicode="&#xdb;" horiz-adv-x="1560" d="M113 547v887h368v-869q0 -154 73 -224.5t226.5 -70.5t226 71t72.5 224v869h369v-887q0 -309 -167 -436t-501 -127t-500.5 127t-166.5 436zM356 1669l308 240q47 35 116 35q74 0 117 -35l307 -240l-127 -153l-241 196q-27 23 -56 23q-27 0 -55 -23l-240 -196z" />
<glyph unicode="&#xdc;" horiz-adv-x="1560" d="M113 547v887h368v-869q0 -154 73 -224.5t226.5 -70.5t226 71t72.5 224v869h369v-887q0 -309 -167 -436t-501 -127t-500.5 127t-166.5 436zM375 1542v244h309v-244h-309zM877 1542v244h309v-244h-309z" />
<glyph unicode="&#xdd;" horiz-adv-x="1499" d="M-47 1434h393l404 -686l403 686h393l-614 -1016v-418h-367v418zM526 1702l369 299l160 -189l-371 -296z" />
<glyph unicode="&#xde;" d="M113 0v1434h368v-222h645q209 0 282 -110.5t73 -340t-73 -341t-282 -111.5h-645v-309h-368zM481 596h437q100 0 143 37t43 129t-42 128t-142 36h-439v-330z" />
<glyph unicode="&#xdf;" horiz-adv-x="1236" d="M86 0v879q0 285 134 426t427 141q225 0 349 -87t124 -298q0 -254 -200 -281v-8q150 -12 206 -101t56 -255q0 -211 -81 -313.5t-286 -102.5h-227v236h78q104 0 146 48t42 158q0 109 -41 155t-147 46h-76v236h65q137 0 138 163q0 178 -160 179q-121 0 -174 -69t-53 -210 v-942h-320z" />
<glyph unicode="&#xe0;" horiz-adv-x="1222" d="M55 340q0 338 269 338h493v47q0 131 -137 131h-549v229h670q158 0 247 -94t89 -250v-536q0 -205 -205 -205h-608q-143 0 -206 83t-63 257zM334 1454l149 188l363 -299l-150 -186zM379 338q0 -117 94 -117h272q39 0 55.5 16.5t16.5 55.5v164h-342q-96 0 -96 -119z" />
<glyph unicode="&#xe1;" horiz-adv-x="1222" d="M55 340q0 338 269 338h493v47q0 131 -137 131h-549v229h670q158 0 247 -94t89 -250v-536q0 -205 -205 -205h-608q-143 0 -206 83t-63 257zM354 1343l361 299l151 -188l-362 -297zM379 338q0 -117 94 -117h272q39 0 55.5 16.5t16.5 55.5v164h-342q-96 0 -96 -119z" />
<glyph unicode="&#xe2;" horiz-adv-x="1222" d="M55 340q0 338 269 338h493v47q0 131 -137 131h-549v229h670q158 0 247 -94t89 -250v-536q0 -205 -205 -205h-608q-143 0 -206 83t-63 257zM205 1311l303 239q45 35 100.5 35t100.5 -35l307 -239l-109 -154l-241 197q-31 23 -56 22q-23 0 -55 -22l-240 -197zM379 338 q0 -117 94 -117h272q39 0 55.5 16.5t16.5 55.5v164h-342q-96 0 -96 -119z" />
<glyph unicode="&#xe3;" horiz-adv-x="1222" d="M55 340q0 338 269 338h493v47q0 131 -137 131h-549v229h670q158 0 247 -94t89 -250v-536q0 -205 -205 -205h-608q-143 0 -206 83t-63 257zM174 1288q113 182 275 182q61 0 120 -30l86 -41q88 -41 123 -41q82 0 146 117l123 -99q-125 -197 -279 -196q-80 0 -141 30l-78 41 q-57 33 -109 33q-75 0 -145 -100zM379 338q0 -117 94 -117h272q39 0 55.5 16.5t16.5 55.5v164h-342q-96 0 -96 -119z" />
<glyph unicode="&#xe4;" horiz-adv-x="1222" d="M55 340q0 338 269 338h493v47q0 131 -137 131h-549v229h670q158 0 247 -94t89 -250v-536q0 -205 -205 -205h-608q-143 0 -206 83t-63 257zM223 1198v236h287v-236h-287zM379 338q0 -117 94 -117h272q39 0 55.5 16.5t16.5 55.5v164h-342q-96 0 -96 -119zM711 1198v236h286 v-236h-286z" />
<glyph unicode="&#xe5;" horiz-adv-x="1222" d="M55 340q0 338 269 338h493v47q0 131 -137 131h-549v229h670q158 0 247 -94t89 -250v-536q0 -205 -205 -205h-608q-143 0 -206 83t-63 257zM369 1395q0 123 56 180t185 57t185.5 -57t56.5 -180t-56.5 -180.5t-185.5 -57.5t-185 57.5t-56 180.5zM379 338q0 -117 94 -117 h272q39 0 55.5 16.5t16.5 55.5v164h-342q-96 0 -96 -119zM504 1394.5q0 -114.5 106.5 -114.5t106.5 114.5t-106.5 114.5t-106.5 -114.5z" />
<glyph unicode="&#xe6;" horiz-adv-x="1957" d="M45 336q0 332 268 332h494v53q0 66 -36 102.5t-101 36.5h-549v225h639q133 0 225 -81q117 94 375 94q117 0 195.5 -8.5t152.5 -35t115 -73.5t65.5 -125t24.5 -190q0 -215 -170 -215h-613q0 -111 47.5 -168.5t170.5 -57.5h528v-225h-666q-152 0 -219 61q-41 -61 -131 -61 h-547q-143 0 -205.5 82t-62.5 254zM369 340q0 -115 94 -115h272q72 0 72 78v148h-342q-96 0 -96 -111zM1130 668h398q59 0 59 61q0 76 -67.5 109.5t-159.5 33.5q-121 0 -175.5 -44.5t-54.5 -159.5z" />
<glyph unicode="&#xe7;" horiz-adv-x="1089" d="M55 542.5q0 268.5 98.5 405.5t358.5 137h516v-235h-393q-145 0 -198.5 -77t-53.5 -230.5t53 -230t199 -76.5h418v-236h-328l-27 -57q-6 -10 -6 -15q0 -10 17 -10h22q152 0 152 -156q0 -162 -187 -161h-184v129h150q51 0 51 30q0 33 -51 33h-70q-70 0 -70 53q0 10 13 48 l51 106h-74q-260 0 -358.5 137t-98.5 405.5z" />
<glyph unicode="&#xe8;" horiz-adv-x="1216" d="M55 547q0 176 24.5 280.5t92.5 167t167 83t269 20.5q147 0 239.5 -15.5t169.5 -60.5t110.5 -133t33.5 -227q0 -225 -170 -226h-612q0 -106 46 -156.5t171 -50.5h528v-229h-655q-252 0 -333 116.5t-81 430.5zM352 1454l150 188l362 -299l-149 -186zM379 657h397 q59 0 60 66q0 76 -69 110.5t-159 34.5q-119 0 -174 -47t-55 -164z" />
<glyph unicode="&#xe9;" horiz-adv-x="1216" d="M55 547q0 176 24.5 280.5t92.5 167t167 83t269 20.5q147 0 239.5 -15.5t169.5 -60.5t110.5 -133t33.5 -227q0 -225 -170 -226h-612q0 -106 46 -156.5t171 -50.5h528v-229h-655q-252 0 -333 116.5t-81 430.5zM352 1343l361 299l151 -188l-362 -297zM379 657h397 q59 0 60 66q0 76 -69 110.5t-159 34.5q-119 0 -174 -47t-55 -164z" />
<glyph unicode="&#xea;" horiz-adv-x="1216" d="M55 547q0 176 24.5 280.5t92.5 167t167 83t269 20.5q147 0 239.5 -15.5t169.5 -60.5t110.5 -133t33.5 -227q0 -225 -170 -226h-612q0 -106 46 -156.5t171 -50.5h528v-229h-655q-252 0 -333 116.5t-81 430.5zM203 1311l303 239q45 35 100.5 35t100.5 -35l307 -239 l-109 -154l-241 197q-31 23 -56 22q-23 0 -55 -22l-240 -197zM379 657h397q59 0 60 66q0 76 -69 110.5t-159 34.5q-119 0 -174 -47t-55 -164z" />
<glyph unicode="&#xeb;" horiz-adv-x="1216" d="M55 547q0 176 24.5 280.5t92.5 167t167 83t269 20.5q147 0 239.5 -15.5t169.5 -60.5t110.5 -133t33.5 -227q0 -225 -170 -226h-612q0 -106 46 -156.5t171 -50.5h528v-229h-655q-252 0 -333 116.5t-81 430.5zM221 1198v236h287v-236h-287zM379 657h397q59 0 60 66 q0 76 -69 110.5t-159 34.5q-119 0 -174 -47t-55 -164zM709 1198v236h286v-236h-286z" />
<glyph unicode="&#xec;" horiz-adv-x="491" d="M-10 1454l149 188l363 -299l-150 -186zM86 0v1085h320v-1085h-320z" />
<glyph unicode="&#xed;" horiz-adv-x="491" d="M-10 1343l360 299l152 -188l-363 -297zM86 0v1085h320v-1085h-320z" />
<glyph unicode="&#xee;" horiz-adv-x="491" d="M-160 1311l303 239q45 35 100.5 35t100.5 -35l307 -239l-108 -154l-242 197q-31 23 -55 22q-23 0 -56 -22l-239 -197zM86 0v1085h320v-1085h-320z" />
<glyph unicode="&#xef;" horiz-adv-x="540" d="M-20 1217v233h233v-233h-233zM111 0v1085h319v-1085h-319zM328 1217v233h233v-233h-233z" />
<glyph unicode="&#xf0;" horiz-adv-x="1220" d="M55 542.5q0 266.5 99.5 404.5t347.5 138h313q0 102 -65 172l-199 -81l-55 122l153 64q-61 47 -184 96l98 117q145 -31 283 -133l188 78l60 -121l-131 -56q96 -94 134 -211.5t38 -287.5v-639q0 -205 -205 -205h-428q-248 0 -347.5 138t-99.5 404.5zM383 543q0 -72 7 -120 t27.5 -95t64.5 -69.5t114 -22.5h137q45 0 63.5 17t18.5 64v533h-223q-53 0 -93 -17.5t-61.5 -45t-34 -70.5t-16.5 -82t-4 -92z" />
<glyph unicode="&#xf1;" horiz-adv-x="1245" d="M86 0v881q0 205 205 204h442q201 0 313.5 -95t112.5 -296v-694h-319v612q0 125 -52.5 181.5t-173.5 56.5h-137q-39 0 -55 -16.5t-16 -55.5v-778h-320zM186 1288q113 182 275 182q61 0 121 -30l86 -41q88 -41 123 -41q82 0 145 117l123 -99q-125 -197 -279 -196 q-80 0 -141 30l-78 41q-57 33 -108 33q-76 0 -146 -100z" />
<glyph unicode="&#xf2;" horiz-adv-x="1314" d="M55 543q0 319 137.5 437t465 118t465 -118t137.5 -437q0 -322 -137.5 -438.5t-465 -116.5t-465 116.5t-137.5 438.5zM383 543q0 -168 59.5 -244t215 -76t215 76t59.5 244t-59.5 243.5t-215 75.5t-215 -75.5t-59.5 -243.5zM401 1454l150 188l362 -299l-149 -186z" />
<glyph unicode="&#xf3;" horiz-adv-x="1314" d="M55 543q0 319 137.5 437t465 118t465 -118t137.5 -437q0 -322 -137.5 -438.5t-465 -116.5t-465 116.5t-137.5 438.5zM383 543q0 -168 59.5 -244t215 -76t215 76t59.5 244t-59.5 243.5t-215 75.5t-215 -75.5t-59.5 -243.5zM401 1343l361 299l151 -188l-362 -297z" />
<glyph unicode="&#xf4;" horiz-adv-x="1314" d="M55 543q0 319 137.5 437t465 118t465 -118t137.5 -437q0 -322 -137.5 -438.5t-465 -116.5t-465 116.5t-137.5 438.5zM252 1311l303 239q45 35 100.5 35t100.5 -35l307 -239l-109 -154l-241 197q-31 23 -56 22q-23 0 -55 -22l-240 -197zM383 543q0 -168 59.5 -244t215 -76 t215 76t59.5 244t-59.5 243.5t-215 75.5t-215 -75.5t-59.5 -243.5z" />
<glyph unicode="&#xf5;" horiz-adv-x="1314" d="M55 543q0 319 137.5 437t465 118t465 -118t137.5 -437q0 -322 -137.5 -438.5t-465 -116.5t-465 116.5t-137.5 438.5zM221 1288q113 182 275 182q61 0 120 -30l86 -41q88 -41 123 -41q82 0 146 117l123 -99q-125 -197 -279 -196q-80 0 -141 30l-78 41q-57 33 -109 33 q-75 0 -145 -100zM383 543q0 -168 59.5 -244t215 -76t215 76t59.5 244t-59.5 243.5t-215 75.5t-215 -75.5t-59.5 -243.5z" />
<glyph unicode="&#xf6;" horiz-adv-x="1314" d="M55 543q0 319 137.5 437t465 118t465 -118t137.5 -437q0 -322 -137.5 -438.5t-465 -116.5t-465 116.5t-137.5 438.5zM270 1198v236h287v-236h-287zM383 543q0 -168 59.5 -244t215 -76t215 76t59.5 244t-59.5 243.5t-215 75.5t-215 -75.5t-59.5 -243.5zM758 1198v236h286 v-236h-286z" />
<glyph unicode="&#xf7;" horiz-adv-x="1318" d="M113 545v221h1093v-221h-1093zM504 31v313h309v-313h-309zM504 967v313h309v-313h-309z" />
<glyph unicode="&#xf8;" horiz-adv-x="1294" d="M20 51l115 107q-88 123 -88 385q0 319 137 437t465 118q281 0 418 -86l125 114l82 -90l-117 -106q94 -123 94 -387q0 -322 -137 -438.5t-465 -116.5q-293 0 -426 86l-121 -113zM375 543q0 -88 18 -150l447 416q-66 53 -191 53q-156 0 -215 -75.5t-59 -243.5zM451 281 q63 -57 198 -58q156 0 215.5 76t59.5 244q0 90 -21 157z" />
<glyph unicode="&#xf9;" horiz-adv-x="1261" d="M86 389v696h320v-614q0 -125 53 -181.5t174 -56.5h149q39 0 55.5 16.5t16.5 55.5v780h322v-880q0 -205 -205 -205h-459q-201 0 -313.5 94t-112.5 295zM334 1454l149 188l363 -299l-150 -186z" />
<glyph unicode="&#xfa;" horiz-adv-x="1261" d="M86 389v696h320v-614q0 -125 53 -181.5t174 -56.5h149q39 0 55.5 16.5t16.5 55.5v780h322v-880q0 -205 -205 -205h-459q-201 0 -313.5 94t-112.5 295zM416 1343l360 299l152 -188l-363 -297z" />
<glyph unicode="&#xfb;" horiz-adv-x="1261" d="M86 389v696h320v-614q0 -125 53 -181.5t174 -56.5h149q39 0 55.5 16.5t16.5 55.5v780h322v-880q0 -205 -205 -205h-459q-201 0 -313.5 94t-112.5 295zM225 1311l303 239q45 35 100.5 35t100.5 -35l307 -239l-108 -154l-242 197q-31 23 -55 22q-23 0 -56 -22l-239 -197z " />
<glyph unicode="&#xfc;" horiz-adv-x="1261" d="M86 389v696h320v-614q0 -125 53 -181.5t174 -56.5h149q39 0 55.5 16.5t16.5 55.5v780h322v-880q0 -205 -205 -205h-459q-201 0 -313.5 94t-112.5 295zM244 1198v236h286v-236h-286zM731 1198v236h287v-236h-287z" />
<glyph unicode="&#xfd;" horiz-adv-x="1245" d="M-29 1085h328l322 -761l329 761h324l-647 -1435h-324l168 352zM408 1343l360 299l152 -188l-363 -297z" />
<glyph unicode="&#xfe;" horiz-adv-x="1220" d="M86 -348v1782h320v-349h313q248 0 347 -138t99 -404.5t-99 -404.5t-347 -138h-313v-348h-320zM406 236h225q88 0 136 48t59.5 107.5t11.5 151.5q0 152 -41 229.5t-170 77.5h-221v-614z" />
<glyph unicode="&#xff;" horiz-adv-x="1245" d="M-29 1085h328l322 -761l329 761h324l-647 -1435h-324l168 352zM236 1198v236h286v-236h-286zM723 1198v236h287v-236h-287z" />
<glyph unicode="&#x152;" horiz-adv-x="2496" d="M72 717q0 225 37.5 366.5t133 223.5t232.5 112.5t359 30.5q360 0 501 -107q35 90 150 91h942v-279h-737q-53 0 -75 -21.5t-22 -74.5v-195h815v-266h-815v-223q0 -53 21.5 -74.5t75.5 -21.5h745v-279h-950q-115 0 -150 86q-139 -102 -501 -102q-221 0 -358.5 29.5 t-233 112.5t-133 224.5t-37.5 366.5zM449 717q0 -256 80.5 -351.5t304 -95.5t304.5 95.5t81 351.5t-81 351t-304.5 95t-304 -95t-80.5 -351z" />
<glyph unicode="&#x153;" horiz-adv-x="2093" d="M55 543q0 319 137.5 437t464.5 118q297 0 420 -125q102 125 408 125q147 0 239.5 -15.5t169 -60.5t110.5 -133t34 -227q0 -223 -170 -224h-613q0 -106 46.5 -154t171.5 -48h528v-236h-655q-190 0 -271 102q-123 -115 -418 -114q-328 0 -465 116.5t-137 438.5zM383 543 q0 -168 59.5 -244t215 -76t214 75t58.5 245t-58.5 244.5t-214 74.5t-215 -75.5t-59.5 -243.5zM1255 664h398q59 0 59 61q0 137 -227 137q-121 0 -175.5 -41.5t-54.5 -156.5z" />
<glyph unicode="&#x178;" horiz-adv-x="1499" d="M-47 1434h393l404 -686l403 686h393l-614 -1016v-418h-367v418zM344 1542v244h309v-244h-309zM846 1542v244h309v-244h-309z" />
<glyph unicode="&#x2c6;" horiz-adv-x="954" d="M72 1311l303 239q45 35 100 35t100 -35l308 -239l-109 -154l-242 197q-31 23 -55 22q-23 0 -55 -22l-240 -197z" />
<glyph unicode="&#x2dc;" horiz-adv-x="1015" d="M72 1288q113 182 274 182q63 0 121 -30l86 -41q88 -41 123 -41q82 0 145 117l123 -99q-125 -197 -278 -196q-80 0 -142 30l-78 41q-57 33 -108 33q-75 0 -145 -100z" />
<glyph unicode="&#x2000;" horiz-adv-x="1000" />
<glyph unicode="&#x2001;" horiz-adv-x="2001" />
<glyph unicode="&#x2002;" horiz-adv-x="1000" />
<glyph unicode="&#x2003;" horiz-adv-x="2001" />
<glyph unicode="&#x2004;" horiz-adv-x="667" />
<glyph unicode="&#x2005;" horiz-adv-x="500" />
<glyph unicode="&#x2006;" horiz-adv-x="333" />
<glyph unicode="&#x2007;" horiz-adv-x="333" />
<glyph unicode="&#x2008;" horiz-adv-x="250" />
<glyph unicode="&#x2009;" horiz-adv-x="400" />
<glyph unicode="&#x200a;" horiz-adv-x="111" />
<glyph unicode="&#x2010;" horiz-adv-x="946" d="M72 416v266h802v-266h-802z" />
<glyph unicode="&#x2011;" horiz-adv-x="946" d="M72 416v266h802v-266h-802z" />
<glyph unicode="&#x2012;" horiz-adv-x="946" d="M72 416v266h802v-266h-802z" />
<glyph unicode="&#x2013;" horiz-adv-x="1150" d="M72 416v266h1007v-266h-1007z" />
<glyph unicode="&#x2014;" horiz-adv-x="2080" d="M72 416v266h1937v-266h-1937z" />
<glyph unicode="&#x2018;" horiz-adv-x="655" d="M61 1421l222 133l311 -452l-248 -148z" />
<glyph unicode="&#x2019;" horiz-adv-x="653" d="M61 1087l285 467l246 -147l-309 -453z" />
<glyph unicode="&#x201a;" horiz-adv-x="630" d="M20 -137l287 467l242 -148l-307 -452z" />
<glyph unicode="&#x201c;" horiz-adv-x="1138" d="M61 1419l222 133l309 -452l-246 -148zM545 1419l223 133l309 -452l-246 -148z" />
<glyph unicode="&#x201d;" horiz-adv-x="1138" d="M61 1085l287 467l246 -147l-311 -453zM547 1085l284 467l246 -147l-309 -453z" />
<glyph unicode="&#x201e;" horiz-adv-x="1114" d="M20 -137l285 467l242 -148l-305 -452zM504 -137l287 467l241 -148l-305 -452z" />
<glyph unicode="&#x2022;" horiz-adv-x="954" d="M113 714.5q0 149.5 107.5 257t257 107.5t257 -107.5t107.5 -257t-107.5 -257t-257 -107.5t-257 107.5t-107.5 257z" />
<glyph unicode="&#x2026;" horiz-adv-x="1593" d="M113 0v315h327v-315h-327zM633 0v315h328v-315h-328zM1153 0v315h328v-315h-328z" />
<glyph unicode="&#x202f;" horiz-adv-x="400" />
<glyph unicode="&#x2030;" horiz-adv-x="2457" d="M82 1099.5q0 186.5 74.5 266.5t269.5 80t268.5 -80t73.5 -266.5t-73.5 -266t-268.5 -79.5t-269.5 79.5t-74.5 266zM287 1100q0 -90 30.5 -131t108.5 -41t107.5 41t29.5 131q0 92 -29.5 133t-107.5 41t-108.5 -42t-30.5 -132zM350 0l783 1434h206l-782 -1434h-207z M915 331.5q0 186.5 75 266.5t269.5 80t268.5 -80t74 -266.5t-74 -265t-268.5 -78.5t-269.5 78.5t-75 265zM1120 332q0 -90 31 -130t108.5 -40t107.5 40t30 130t-30 131t-107.5 41t-108.5 -41t-31 -131zM1688 331.5q0 186.5 74.5 266.5t269 80t269.5 -80t75 -266.5t-75 -265 t-269.5 -78.5t-269 78.5t-74.5 265zM1892 332q0 -90 31 -130t108.5 -40t108.5 40t31 130t-31 131t-108.5 41t-108.5 -41t-31 -131z" />
<glyph unicode="&#x2039;" horiz-adv-x="770" d="M113 575q0 80 47 142l289 389l208 -160l-215 -307q-23 -37 -22 -64q0 -31 22 -63l215 -309l-208 -158l-289 387q-47 61 -47 143z" />
<glyph unicode="&#x203a;" horiz-adv-x="770" d="M113 203l215 309q23 33 22 63q0 27 -22 64l-215 307l209 160l288 -389q47 -61 47 -142q0 -82 -47 -143l-288 -387z" />
<glyph unicode="&#x2044;" horiz-adv-x="1048" d="M-10 -348l897 1864h172l-897 -1864h-172z" />
<glyph unicode="&#x205f;" horiz-adv-x="500" />
<glyph unicode="&#x20ac;" horiz-adv-x="1466" d="M72 461v192h137q-2 18 -2 63.5t2 65.5h-137v193h155q41 236 171 347.5t407 111.5h590v-277h-408q-178 0 -262 -39t-111 -143h648v-193h-676q-2 -18 -2 -65q0 -45 2 -64h561v-192h-533q27 -106 110 -146.5t263 -40.5h428v-274h-610q-276 0 -407.5 112.5t-170.5 348.5h-155 z" />
<glyph unicode="&#x2116;" horiz-adv-x="2394" d="M113 0v1225q0 92 55 155.5t192 63.5q186 0 256 -117l506 -850q20 -35 33 -35q18 0 19 37v955h301v-1221q0 -127 -73 -178t-171 -51q-180 0 -260 131l-502 841q-23 35 -31 35q-25 0 -24 -43v-948h-301zM1606 1106q0 190 73.5 266t270 76t269.5 -76t73 -266 q0 -193 -73 -267.5t-269.5 -74.5t-270 74.5t-73.5 267.5zM1645 473v184h608v-184h-608zM1823 1106q0 -86 25.5 -122t101 -36t100.5 36t25 122t-25 122t-100.5 36t-101 -36t-25.5 -122z" />
<glyph unicode="&#x2122;" horiz-adv-x="2228" d="M72 1231v205h831v-205h-289v-623h-254v623h-288zM989 608v721q0 51 51.5 84t149.5 33q193 0 219 -98l121 -467q8 -27 20.5 -27t20.5 27l123 467q27 98 219 98q86 0 144.5 -28.5t58.5 -88.5v-721h-240v572q0 23 -16.5 23t-22.5 -25l-137 -484q-10 -41 -50 -67.5 t-100 -26.5q-106 0 -147 94l-135 484q-6 25 -22.5 24.5t-16.5 -22.5v-572h-240z" />
<glyph unicode="&#x25fc;" horiz-adv-x="1085" d="M0 0v1085h1085v-1085h-1085z" />
<glyph unicode="&#xf6ba;" horiz-adv-x="946" d="M72 590v266h802v-266h-802z" />
<glyph unicode="&#xf6bb;" horiz-adv-x="1150" d="M72 590v266h1007v-266h-1007z" />
<glyph unicode="&#xf6bc;" horiz-adv-x="2080" d="M72 590v266h1937v-266h-1937z" />
</font>
</defs>
</svg>
