<?xml version="1.0" standalone="no"?>
<!DOCTYPE svg PUBLIC "-//W3C//DTD SVG 1.1//EN" "http://www.w3.org/Graphics/SVG/1.1/DTD/svg11.dtd" >
<svg xmlns="http://www.w3.org/2000/svg" xmlns:xlink="http://www.w3.org/1999/xlink" version="1.1">
<metadata></metadata>
<defs>
<font id="magistralmedium" horiz-adv-x="1486" >
<font-face units-per-em="2048" ascent="1638" descent="-410" />
<missing-glyph horiz-adv-x="477" />
<glyph unicode="&#xfb01;" horiz-adv-x="1120" d="M0 901v184h152q0 201 127 283t348 82q10 0 30.5 -1t30.5 -1v-176q-14 2 -41 2q-47 0 -77.5 -2t-67.5 -13.5t-58.5 -30t-37 -55t-15.5 -88.5h297v-184h-297v-901h-239v901h-152zM786 0v1085h240v-1085h-240zM786 1243v191h240v-191h-240z" />
<glyph unicode="&#xfb02;" horiz-adv-x="1120" d="M0 901v184h152q0 201 127 283t348 82q10 0 30.5 -1t30.5 -1v-176q-14 2 -41 2q-47 0 -77.5 -2t-67.5 -13.5t-58.5 -30t-37 -55t-15.5 -88.5h297v-184h-297v-901h-239v901h-152zM786 0v1434h240v-1434h-240z" />
<glyph horiz-adv-x="0" />
<glyph unicode="&#xd;" horiz-adv-x="681" />
<glyph unicode=" "  horiz-adv-x="477" />
<glyph unicode="&#x09;" horiz-adv-x="477" />
<glyph unicode="&#xa0;" horiz-adv-x="477" />
<glyph unicode="!" horiz-adv-x="528" d="M123 1434h283l-19 -1035h-246zM139 0v254h250v-254h-250z" />
<glyph unicode="&#x22;" horiz-adv-x="796" d="M123 1434h223l-10 -510h-201zM451 1434h223l-10 -510h-201z" />
<glyph unicode="#" horiz-adv-x="1789" d="M82 369l70 176h272l145 360h-272l72 176h272l141 353h205l-141 -353h385l141 353h205l-141 -353h272l-72 -176h-272l-145 -360h272l-72 -178h-272l-148 -367h-204l147 367h-383l-149 -367h-203l145 369h-270zM629 545h385l145 360h-385z" />
<glyph unicode="$" horiz-adv-x="1349" d="M61 1087q0 160 82 253.5t246 93.5h213v139h160v-139h452v-215h-452v-400l227 -71q162 -51 229.5 -133.5t67.5 -245.5q0 -170 -73.5 -269.5t-231.5 -99.5h-219v-139h-160v139h-522v215h522v401l-297 95q-135 43 -189.5 132t-54.5 244zM340 1075q0 -59 23.5 -98t101.5 -64 l137 -43v349h-141q-55 0 -88 -35t-33 -109zM762 215h112q133 0 134 156q-1 118 -138 161l-108 35v-352z" />
<glyph unicode="%" horiz-adv-x="1673" d="M102 1102q0 178 74 261t264.5 83t264 -83t73.5 -261q0 -180 -72.5 -262t-265 -82t-265.5 82t-73 262zM291 1102q0 -98 30.5 -142.5t118.5 -44.5t119 44.5t31 142.5t-31 142t-119 44t-118.5 -44t-30.5 -142zM385 0l731 1434h180l-731 -1434h-180zM895 332q0 178 73.5 261 t264 83t264.5 -83t74 -261q0 -180 -73 -262t-265.5 -82t-265 82t-72.5 262zM1083 331.5q0 -98.5 31 -142.5t119 -44t118.5 44t30.5 142.5t-30.5 142.5t-118.5 44t-119 -44t-31 -142.5z" />
<glyph unicode="&#x26;" horiz-adv-x="1525" d="M123 410q0 262 217 305v8q-111 12 -163 106.5t-52 233.5q0 190 89 280.5t290 90.5h749v-213h-645q-117 0 -163 -37t-46 -150q0 -125 51.5 -173t176.5 -48h858v-192h-215v-349q0 -152 -55.5 -212t-231.5 -60h-477q-201 0 -292 93t-91 317zM397 420q0 -109 41 -158t150 -49 h321q61 0 79 16.5t18 59.5v329h-447q-84 0 -123 -46t-39 -152z" />
<glyph unicode="'" horiz-adv-x="471" d="M123 1434h225l-12 -510h-201z" />
<glyph unicode="(" horiz-adv-x="761" d="M123 264v594q0 297 149.5 442.5t407.5 145.5v-172q-180 0 -275.5 -107.5t-95.5 -308.5v-596q0 -201 95.5 -308.5t275.5 -107.5v-172q-258 0 -407.5 146.5t-149.5 443.5z" />
<glyph unicode=")" horiz-adv-x="761" d="M82 -154q180 0 275.5 107.5t95.5 308.5v596q0 201 -95.5 308.5t-275.5 107.5v172q258 0 407.5 -145.5t149.5 -442.5v-594q0 -297 -149.5 -443.5t-407.5 -146.5v172z" />
<glyph unicode="*" horiz-adv-x="1046" d="M82 922l291 168l-291 167l74 127l295 -167v335h147v-333l289 167l78 -135l-291 -168l289 -168l-74 -129l-291 168v-336h-147v336l-291 -168z" />
<glyph unicode="+" horiz-adv-x="1185" d="M123 549v174h377v377h186v-377h377v-174h-377v-377h-186v377h-377z" />
<glyph unicode="," horiz-adv-x="569" d="M0 -129l250 416l196 -117l-264 -408z" />
<glyph unicode="-" horiz-adv-x="894" d="M82 446v211h731v-211h-731z" />
<glyph unicode="." horiz-adv-x="495" d="M123 0v264h250v-264h-250z" />
<glyph unicode="/" horiz-adv-x="1038" d="M0 -340l856 1856h182l-856 -1856h-182z" />
<glyph unicode="0" horiz-adv-x="1318" d="M82 518v412q0 299 130 408.5t447.5 109.5t447.5 -109.5t130 -408.5v-412q0 -301 -131 -414.5t-446.5 -113.5t-446.5 113.5t-131 414.5zM352 528q0 -182 68.5 -252.5t238.5 -70.5q178 0 243 69.5t65 253.5v390q0 184 -64.5 249.5t-243.5 65.5q-170 0 -238.5 -67.5 t-68.5 -247.5v-390z" />
<glyph unicode="1" horiz-adv-x="618" d="M0 1219v215h309q186 0 187 -181v-1253h-271v1120q0 37 -3 54.5t-18.5 31t-45.5 13.5h-158z" />
<glyph unicode="2" horiz-adv-x="1282" d="M82 172q0 125 88 188l664 455q59 41 75.5 87t16.5 120q0 109 -36 153t-140 44h-572v215h696q176 0 251 -91.5t75 -289.5q0 -154 -37 -237t-151 -163l-578 -401q-2 -2 -8 -6t-10 -9.5t-4 -9.5q0 -12 16 -12h713v-215h-908q-18 0 -35.5 4t-48 17.5t-49 52.5t-18.5 98z" />
<glyph unicode="3" horiz-adv-x="1267" d="M82 0v215h575q76 0 112 4t74 21.5t51 58.5t13 111q0 104 -38 155t-156 51h-594v215h577q111 0 151 45.5t40 151.5q0 94 -33 142.5t-135 48.5h-613v215h719q184 0 262 -91.5t78 -285.5q0 -297 -215 -324v-8q236 -12 236 -330q0 -188 -73 -291.5t-265 -103.5h-766z" />
<glyph unicode="4" horiz-adv-x="1392" d="M37 440q0 102 80 187l692 741q76 82 199 82q164 0 163 -156v-837h181v-215h-181v-242h-270v242h-688q-176 0 -176 198zM295 481q0 -25 37 -24h569v680q0 8 -8 8q-6 0 -25 -21l-549 -608q-25 -25 -24 -35z" />
<glyph unicode="5" horiz-adv-x="1265" d="M82 887v362q0 86 48 135.5t142 49.5h865v-215h-717q-20 0 -33.5 -4.5t-24 -20.5t-10.5 -49v-178q0 -66 21.5 -93.5t85.5 -27.5h407q176 0 247 -105.5t71 -296.5q0 -76 -6.5 -135t-27 -119.5t-54 -100.5t-92 -64.5t-138.5 -24.5h-776v215h660q86 0 120.5 53.5t34.5 165.5 q0 100 -33.5 148.5t-121.5 48.5h-402q-131 0 -198.5 53t-67.5 203z" />
<glyph unicode="6" horiz-adv-x="1308" d="M123 395v666q0 176 93 274.5t282 98.5h657v-215h-561q-102 0 -151.5 -44.5t-49.5 -142.5v-153h461q201 0 287 -101.5t86 -312.5q0 -111 -14.5 -187.5t-54.5 -144t-117.5 -100.5t-196.5 -33h-359q-362 0 -362 395zM393 408q0 -104 36 -148.5t151 -44.5h174 q109 0 151.5 58.5t42.5 175.5q0 113 -46 164t-171 51h-338v-256z" />
<glyph unicode="7" horiz-adv-x="1101" d="M0 1219v215h944q92 0 125 -41t33 -109q0 -84 -49 -166l-686 -1118h-301l718 1139q23 35 23 53q0 27 -43 27h-764z" />
<glyph unicode="8" horiz-adv-x="1318" d="M82 379q0 156 46 239.5t183 106.5v8q-98 12 -147 99.5t-49 205.5q0 127 27.5 208t88 121t130 53.5t180.5 13.5h235q111 0 181.5 -13.5t131 -53.5t88 -121t27.5 -208q0 -270 -196 -305v-8q137 -23 183 -106.5t46 -239.5q0 -199 -95 -289t-296 -90h-373q-201 0 -296 90 t-95 289zM360 422q0 -111 40.5 -159t140.5 -48h237q100 0 140 48t40 159q0 104 -47 150t-141 46h-221q-94 0 -141.5 -46t-47.5 -150zM393 1024q0 -106 38 -148t130 -42h197q92 0 130 42t38 148q0 109 -42 152t-149 43h-153q-106 0 -147.5 -43t-41.5 -152z" />
<glyph unicode="9" horiz-adv-x="1308" d="M82 969q0 111 14.5 187.5t54 144t117.5 100.5t197 33h358q362 0 363 -396v-665q0 -176 -93.5 -274.5t-281.5 -98.5h-657v215h561q102 0 151 44t49 142v154h-460q-201 0 -287 101.5t-86 312.5zM360 985q0 -113 46.5 -164t171.5 -51h337v256q0 104 -35.5 148.5t-150.5 44.5 h-174q-109 0 -152 -58.5t-43 -175.5z" />
<glyph unicode=":" horiz-adv-x="495" d="M123 0v258h250v-258h-250zM123 827v258h250v-258h-250z" />
<glyph unicode=";" horiz-adv-x="495" d="M0 -129l250 416l196 -117l-264 -408zM123 827v258h250v-258h-250z" />
<glyph unicode="&#x3c;" horiz-adv-x="1189" d="M123 643l944 475v-213l-567 -262l567 -262v-213z" />
<glyph unicode="=" horiz-adv-x="1187" d="M123 403v175h942v-175h-942zM123 713v174h942v-174h-942z" />
<glyph unicode="&#x3e;" horiz-adv-x="1189" d="M123 168v213l567 262l-567 262v213l944 -475z" />
<glyph unicode="?" horiz-adv-x="991" d="M41 1219v215h539q172 0 250.5 -81t78.5 -272q0 -113 -32.5 -191.5t-143.5 -146.5l-158 -96q-90 -53 -90 -135v-113h-249v119q0 90 37.5 143.5t117.5 100.5l133 80q59 33 87 72.5t28 123.5q0 96 -38 138.5t-124 42.5h-436zM236 0v254h249v-254h-249z" />
<glyph unicode="@" horiz-adv-x="2078" d="M123 573q0 469 161.5 667t561.5 198h438q360 0 516 -190.5t156 -602.5q0 -80 -1 -124t-7 -124t-18.5 -126t-37 -105.5t-59.5 -92t-90 -56t-125 -23.5q-98 0 -177 48t-102 142q-102 -190 -370 -190q-236 0 -331 133t-95 395q0 119 19.5 211t65.5 171t133 121t212 42h297 q90 0 137 -37t47 -145v-510q0 -121 49 -165t111 -44q33 0 57.5 16.5t38.5 54t23.5 74.5t12.5 101.5t4 108.5t1 124q0 348 -100.5 474t-378.5 126h-412q-117 0 -202 -15.5t-144 -52t-95 -85t-56.5 -129t-27.5 -169.5t-7 -221q0 -111 1 -167t10 -153t27.5 -149.5t54.5 -121 t88 -102.5t132 -59.5t184 -25.5h621v-192h-653q-205 0 -339.5 64.5t-206 198.5t-98 299t-26.5 408zM748 526q0 -63 3 -106t16 -91t36.5 -77t66.5 -48.5t103 -19.5q133 0 207.5 88t74.5 240v293q0 35 -23.5 54.5t-62.5 19.5h-153q-147 0 -207.5 -89.5t-60.5 -263.5z" />
<glyph unicode="A" d="M-33 0l541 1288q39 92 89 127t146 35q92 0 144.5 -36t91.5 -126l541 -1288h-285l-148 362h-690l-145 -362h-285zM467 555h551l-234 584q-23 59 -41 59t-41 -59z" />
<glyph unicode="B" horiz-adv-x="1499" d="M123 215v1004q0 215 209 215h733q309 0 309 -394q0 -279 -203 -307v-8q225 -18 226 -332q0 -186 -71 -289.5t-261 -103.5h-733q-209 0 -209 215zM393 317q0 -61 20.5 -81.5t82.5 -20.5h428q106 0 150 45t44 151.5t-42 155.5t-134 49h-549v-299zM393 831h545 q90 0 124 44.5t34 152.5q0 96 -36 143.5t-124 47.5h-440q-61 0 -82 -21t-21 -82v-285z" />
<glyph unicode="C" horiz-adv-x="1349" d="M82 717q0 164 26.5 286.5t92 224t188.5 154t301 52.5h576v-215h-449q-262 0 -359.5 -105.5t-97.5 -396.5t97.5 -396.5t359.5 -105.5h471v-215h-598q-178 0 -301 52t-188.5 153.5t-92 224.5t-26.5 287z" />
<glyph unicode="D" horiz-adv-x="1533" d="M123 215v1004q0 215 209 215h555q141 0 245.5 -42t165 -108.5t96.5 -165t47 -191.5t11 -210q0 -115 -11 -209t-45 -192.5t-90.5 -165t-153.5 -108.5t-228 -42h-592q-209 0 -209 215zM393 317q0 -61 20.5 -81.5t82.5 -20.5h297q119 0 196.5 36t116.5 109.5t53.5 155.5 t14.5 201t-14.5 200.5t-53.5 155.5t-116.5 110t-196.5 36h-297q-61 0 -82 -20.5t-21 -82.5v-799z" />
<glyph unicode="E" horiz-adv-x="1333" d="M123 215v1004q0 215 209 215h932v-215h-768q-61 0 -82 -20.5t-21 -82.5v-276h850v-215h-850v-308q0 -61 20.5 -81.5t82.5 -20.5h776v-215h-940q-209 0 -209 215z" />
<glyph unicode="F" horiz-adv-x="1284" d="M123 0v1219q0 215 209 215h932v-215h-768q-61 0 -82 -20.5t-21 -82.5v-285h635v-215h-635v-616h-270z" />
<glyph unicode="G" horiz-adv-x="1488" d="M82 717q0 164 26.5 286.5t92 224t188.5 154t301 52.5h684v-215h-557q-262 0 -359.5 -105.5t-97.5 -396.5t97.5 -396.5t359.5 -105.5h217q61 0 82 20.5t21 81.5v385h270v-487q0 -215 -209 -215h-508q-178 0 -301 52t-188.5 153.5t-92 224.5t-26.5 287z" />
<glyph unicode="H" horiz-adv-x="1531" d="M123 0v1434h270v-588h746v588h270v-1434h-270v631h-746v-631h-270z" />
<glyph unicode="I" horiz-adv-x="516" d="M123 0v1434h270v-1434h-270z" />
<glyph unicode="J" horiz-adv-x="952" d="M0 0v215h236q170 0 246.5 81t76.5 257v881h270v-953q0 -217 -118.5 -349t-343.5 -132h-367z" />
<glyph unicode="K" horiz-adv-x="1454" d="M123 0v1434h270v-1434h-270zM473 737q0 90 70 160l542 537h336l-620 -588q-4 -4 -19.5 -18.5t-19.5 -19.5t-13.5 -18.5t-12.5 -24.5t-3 -26q0 -59 84 -131l678 -608h-348l-600 547q-74 66 -74 190z" />
<glyph unicode="L" horiz-adv-x="1265" d="M123 215v1219h270v-1117q0 -61 20.5 -81.5t82.5 -20.5h770v-215h-934q-209 0 -209 215z" />
<glyph unicode="M" horiz-adv-x="2031" d="M123 0v1262q0 188 231 188q111 0 164 -47t88 -137l371 -957q25 -53 39 -53t39 53l370 957q35 90 88.5 137t163.5 47q231 0 232 -188v-1262h-271l9 1116q0 43 -25 43q-17 0 -35 -47l-366 -956q-37 -92 -78 -132t-127 -40t-127 39.5t-78 132.5l-367 956q-18 47 -34 47 q-23 0 -23 -43l6 -1116h-270z" />
<glyph unicode="N" horiz-adv-x="1617" d="M123 0v1255q0 92 58.5 143.5t160.5 51.5q158 0 227 -113l609 -960q2 -4 6 -11.5t7 -11.5t8 -8t11 -4q23 0 23 35v1057h262v-1248q0 -102 -59.5 -152t-153.5 -50q-156 0 -231 120l-605 955q-25 35 -32 35q-29 0 -29 -41v-1053h-262z" />
<glyph unicode="O" horiz-adv-x="1636" d="M82 717q0 219 39 359.5t131 224t225 116.5t340 33q209 0 342 -33t225.5 -116.5t131 -224t38.5 -359.5t-38.5 -359.5t-131 -224.5t-225.5 -116.5t-342 -32.5q-207 0 -340 32.5t-225 116.5t-131 224.5t-39 359.5zM360 717q0 -305 95.5 -411.5t361.5 -106.5t362.5 106.5 t96.5 411.5t-96.5 411.5t-362.5 106.5t-361.5 -106.5t-95.5 -411.5z" />
<glyph unicode="P" horiz-adv-x="1470" d="M123 0v1219q0 215 209 215h712q111 0 186 -36t112.5 -104.5t52 -143.5t14.5 -177.5t-14.5 -178t-52 -144t-112.5 -105.5t-186 -37h-651v-508h-270zM393 723h518q131 0 175 58.5t44 191.5t-44 189.5t-175 56.5h-415q-61 0 -82 -20.5t-21 -82.5v-393z" />
<glyph unicode="Q" horiz-adv-x="1650" d="M82 717q0 219 39 359.5t131 224t225 116.5t340 33q209 0 342 -33t225.5 -116.5t131 -224t38.5 -359.5q0 -199 -38.5 -312.5t-118.5 -181.5v-8l205 8v-223h-826q-193 0 -316.5 30.5t-212.5 110.5t-127 219.5t-38 356.5zM360 717q0 -303 94.5 -402.5t362.5 -99.5 t363.5 99.5t95.5 402.5q0 305 -96.5 411.5t-362.5 106.5t-361.5 -106.5t-95.5 -411.5z" />
<glyph unicode="R" horiz-adv-x="1503" d="M123 0v1219q0 215 209 215h723q193 0 275.5 -114t82.5 -339q0 -479 -332 -479h-143v-10l504 -492h-348l-463 465q-68 72 -68 121v32q0 45 32 72t89 27h279q104 0 138 63.5t34 200.5q0 131 -40 184.5t-163 53.5h-436q-61 0 -82 -20.5t-21 -82.5v-1116h-270z" />
<glyph unicode="S" horiz-adv-x="1349" d="M61 1087q0 160 82 253.5t246 93.5h825v-215h-753q-55 0 -88 -35t-33 -109q0 -59 23.5 -98t101.5 -64l524 -165q162 -51 230.5 -133.5t68.5 -245.5q0 -168 -74.5 -268.5t-232.5 -100.5h-901v215h794q135 0 136 156q0 119 -140 161l-565 179q-135 43 -189.5 132t-54.5 244z " />
<glyph unicode="T" horiz-adv-x="1390" d="M0 1219v215h1391v-215h-562v-1219h-270v1219h-559z" />
<glyph unicode="U" horiz-adv-x="1490" d="M123 520v914h270v-914q0 -168 84 -244.5t268.5 -76.5t268.5 76.5t84 244.5v914h270v-914q0 -293 -156.5 -414.5t-466 -121.5t-466 121.5t-156.5 414.5z" />
<glyph unicode="V" horiz-adv-x="1437" d="M-33 1434h293l428 -1158q0 -2 4 -9t7 -10t8.5 -7t11.5 -4t11 4t8 7t7.5 10t4.5 9l428 1158h292l-520 -1295q-61 -156 -230 -156l-1 1q-170 0 -232 155z" />
<glyph unicode="W" horiz-adv-x="2148" d="M-12 1434h274l285 -1104q12 -43 31 -43q16 0 30 35l266 981q6 27 15.5 47t31 45.5t60.5 40t92 14.5q160 0 199 -147l266 -981q10 -35 31 -35q23 0 33 43l284 1104h275l-346 -1250q-29 -102 -74 -151t-158 -49q-111 0 -158 48t-71 136l-252 928q-8 39 -27 39 q-16 0 -28 -39l-254 -928q-25 -90 -71 -137t-157 -47q-113 0 -160 50t-73 150z" />
<glyph unicode="X" horiz-adv-x="1327" d="M-41 0l551 727l-535 707h322l367 -516l366 516h322l-535 -707l551 -727h-321l-383 537l-383 -537h-322z" />
<glyph unicode="Y" horiz-adv-x="1400" d="M-41 1434h291l450 -752l451 752h291l-606 -996v-438h-271v438z" />
<glyph unicode="Z" horiz-adv-x="1288" d="M20 147q0 100 89 193l782 809q25 25 24 43q0 27 -38 27h-801v215h1030q162 0 162 -148q0 -43 -14.5 -79t-27 -52t-40.5 -45l-793 -836q-20 -20 -20 -36q0 -23 24 -23h848v-215h-1028q-197 0 -197 147z" />
<glyph unicode="[" horiz-adv-x="761" d="M123 -326v1772h557v-172h-371v-1428h371v-172h-557z" />
<glyph unicode="\" horiz-adv-x="1038" d="M0 1516h182l856 -1856h-182z" />
<glyph unicode="]" horiz-adv-x="761" d="M82 -154h373v1428h-373v172h557v-1772h-557v172z" />
<glyph unicode="^" horiz-adv-x="1208" d="M123 1206l371 346q47 47 110.5 47t110.5 -47l370 -346l-118 -139l-303 297q-29 29 -57.5 29t-57.5 -29l-305 -297z" />
<glyph unicode="_" horiz-adv-x="1171" d="M82 0v211h1008v-211h-1008z" />
<glyph unicode="`" horiz-adv-x="616" d="M74 1417l131 154l338 -273l-129 -151z" />
<glyph unicode="a" horiz-adv-x="1157" d="M61 338q0 158 68 248t203 90h491v69q0 156 -151 156h-531v184h617q150 0 227.5 -88t77.5 -231v-582q0 -184 -184 -184h-547q-270 0 -271 338zM309 338q0 -154 115 -154h338q61 0 61 62v246h-399q-115 0 -115 -154z" />
<glyph unicode="b" horiz-adv-x="1163" d="M94 184v1250h240v-349h323q248 0 346.5 -137t98.5 -403t-99.5 -405.5t-345.5 -139.5h-378q-184 0 -185 184zM334 246q0 -61 61 -62h203q158 0 207 90.5t49 270.5q0 88 -8 144t-33 109.5t-78 78t-137 24.5h-264v-655z" />
<glyph unicode="c" horiz-adv-x="1054" d="M61 545q0 266 102.5 403t362.5 137h455v-184h-395q-74 0 -125 -18.5t-81 -47t-46.5 -77.5t-20.5 -96.5t-4 -116.5q0 -88 8.5 -144.5t35 -110.5t85 -80t148.5 -26h420v-184h-480q-260 0 -362.5 138t-102.5 407z" />
<glyph unicode="d" horiz-adv-x="1163" d="M61 545q0 266 98.5 403t346.5 137h323v349h240v-1250q0 -184 -184 -184h-379q-246 0 -345.5 139.5t-99.5 405.5zM309 545q0 -88 8.5 -144.5t33 -110.5t77.5 -80t137 -26h203q61 0 61 62v655h-264q-84 0 -137 -24.5t-77.5 -78t-33 -109.5t-8.5 -144z" />
<glyph unicode="e" horiz-adv-x="1169" d="M61 545q0 315 120 434t405 119q254 0 388 -93.5t134 -336.5q0 -205 -168 -205h-631q0 -141 46 -210t188 -69h530v-184h-602q-127 0 -210 35t-126 109.5t-58.5 166.5t-15.5 234zM309 647h498q53 0 53 64q0 100 -79 151t-195 51q-152 0 -214.5 -62.5t-62.5 -203.5z" />
<glyph unicode="f" horiz-adv-x="688" d="M0 901v184h152q0 201 127 283t348 82q10 0 30.5 -1t30.5 -1v-176q-14 2 -41 2q-47 0 -77.5 -2t-67.5 -13.5t-58.5 -30t-37 -55t-15.5 -88.5h297v-184h-297v-901h-239v901h-152z" />
<glyph unicode="g" horiz-adv-x="1187" d="M61 545q0 266 98.5 403t346.5 137h403q184 0 185 -184v-817q0 -231 -112 -336.5t-357 -105.5h-488v184h488q204 0 229 174h-348q-246 0 -345.5 139.5t-99.5 405.5zM309 545q0 -88 8.5 -144.5t33 -110.5t77.5 -80t137 -26h289v656q0 61 -61 61h-228q-84 0 -137 -24.5 t-77.5 -78t-33 -109.5t-8.5 -144z" />
<glyph unicode="h" horiz-adv-x="1175" d="M94 0v1434h240v-349h325q201 0 311.5 -83.5t110.5 -286.5v-715h-239v651q0 127 -53.5 188.5t-174.5 61.5h-280v-901h-240z" />
<glyph unicode="i" horiz-adv-x="428" d="M94 0v1085h240v-1085h-240zM94 1229v221h240v-221h-240z" />
<glyph unicode="j" horiz-adv-x="575" d="M-82 -180q16 -2 35 -2q143 0 216 56t73 202v1009h239v-1038q0 -231 -128 -322.5t-363 -91.5q-47 0 -72 2v185zM242 1243v191h239v-191h-239z" />
<glyph unicode="k" horiz-adv-x="1112" d="M94 0v1434h240v-1434h-240zM481 725l328 360h278l-407 -438q-35 -35 -35 -78q0 -41 51 -96l445 -473h-295l-365 389q-75 85 -75 170q0 86 75 166z" />
<glyph unicode="l" horiz-adv-x="428" d="M94 0v1434h240v-1434h-240z" />
<glyph unicode="m" horiz-adv-x="1734" d="M94 0v901q0 184 185 184h940q201 0 311 -83.5t110 -286.5v-715h-239v651q0 127 -53.5 188.5t-173.5 61.5h-187v-901h-239v901h-353q-61 0 -61 -61v-840h-240z" />
<glyph unicode="n" horiz-adv-x="1175" d="M94 0v901q0 184 185 184h380q201 0 311.5 -83.5t110.5 -286.5v-715h-239v651q0 127 -53.5 188.5t-174.5 61.5h-219q-61 0 -61 -61v-840h-240z" />
<glyph unicode="o" horiz-adv-x="1277" d="M61 545q0 311 137.5 432t440.5 121t440.5 -121t137.5 -432q0 -315 -136.5 -436t-441.5 -121t-441.5 120.5t-136.5 436.5zM309 545q0 -203 74 -288t256 -85t256 85t74 288q0 201 -74 284.5t-256 83.5t-256 -83.5t-74 -284.5z" />
<glyph unicode="p" horiz-adv-x="1163" d="M94 -348v1249q1 184 185 184h378q248 0 346.5 -137t98.5 -403t-99.5 -405.5t-345.5 -139.5h-323v-348h-240zM334 184h264q158 0 207 90.5t49 270.5q0 88 -8 144t-33 109.5t-78 78t-137 24.5h-203q-61 0 -61 -53v-664z" />
<glyph unicode="q" horiz-adv-x="1163" d="M61 545q0 266 98.5 403t346.5 137h379q184 0 184 -184v-1249h-240v348h-323q-246 0 -345.5 139.5t-99.5 405.5zM309 545q0 -88 8.5 -144.5t33 -110.5t77.5 -80t137 -26h264v664q0 53 -61 53h-203q-84 0 -137 -24.5t-77.5 -78t-33 -109.5t-8.5 -144z" />
<glyph unicode="r" horiz-adv-x="694" d="M94 0v676q0 215 108.5 312t329.5 97h162v-184h-100q-141 0 -200.5 -69.5t-59.5 -219.5v-612h-240z" />
<glyph unicode="s" horiz-adv-x="1081" d="M53 807q0 147 74 212.5t238 65.5h612v-184h-576q-61 0 -87.5 -20.5t-26.5 -77.5q0 -43 29.5 -73t57 -40t83.5 -26l233 -66q72 -20 111 -33.5t89 -39t75.5 -56.5t44 -80t18.5 -113q0 -135 -59.5 -205.5t-206.5 -70.5h-694v184h610q41 0 70.5 24.5t29.5 74.5q0 33 -12 56 t-41 38.5t-49.5 23t-65.5 18.5t-59 15l-209 58q-168 45 -228.5 117.5t-60.5 197.5z" />
<glyph unicode="t" horiz-adv-x="698" d="M0 901v184h150v349h239v-349h309v-184h-309v-498q0 -119 61.5 -169t188.5 -50h59v-184h-149q-195 0 -297 82t-102 272v547h-150z" />
<glyph unicode="u" horiz-adv-x="1191" d="M94 371v714h240v-651q0 -127 53 -188.5t174 -61.5h236q61 0 61 62v839h240v-901q0 -184 -185 -184h-397q-201 0 -311.5 84t-110.5 287z" />
<glyph unicode="v" horiz-adv-x="1103" d="M-29 1085h248l305 -804q16 -43 28.5 -43t29.5 43l303 804h248l-414 -1001q-18 -45 -49 -67.5t-53.5 -25.5t-63.5 -3t-63.5 3t-54.5 25.5t-50 67.5z" />
<glyph unicode="w" horiz-adv-x="1654" d="M-8 1083h229l209 -800q10 -33 21 -33q12 0 20 31l199 716q30 101 158 101h1q127 0 156 -101l201 -716q8 -31 20.5 -31t20.5 33l207 800h229l-258 -948q-20 -78 -64.5 -112.5t-121.5 -34.5q-152 0 -187 121l-188 679q-8 35 -16.5 35t-16.5 -35l-188 -679 q-35 -121 -187 -121q-78 0 -122 34.5t-64 112.5z" />
<glyph unicode="x" horiz-adv-x="1050" d="M-29 0l416 557l-389 528h272l254 -372l254 372h273l-387 -528l415 -557h-280l-275 401l-272 -401h-281z" />
<glyph unicode="y" horiz-adv-x="1167" d="M-20 1085h247l348 -833l369 833h244l-647 -1435h-244l166 354z" />
<glyph unicode="z" horiz-adv-x="976" d="M16 145q0 39 12.5 70t25 46t36.5 40l557 559q16 16 17 25q0 16 -21 16h-592v184h768q63 0 102.5 -35.5t39.5 -101.5q0 -84 -64 -147l-563 -580q-16 -16 -16.5 -26.5t18.5 -10.5h618v-184h-784q-154 0 -154 145z" />
<glyph unicode="{" horiz-adv-x="649" d="M41 498v168q51 4 78.5 35.5t27.5 78.5v248q0 205 95.5 309.5t324.5 104.5v-172q-233 0 -233 -230v-258q0 -157 -96 -192v-17q96 -35 96 -192v-258q0 -229 233 -229v-173q-229 0 -324.5 104.5t-95.5 309.5v248q0 47 -27.5 79t-78.5 36z" />
<glyph unicode="|" horiz-adv-x="389" d="M102 -340v1856h185v-1856h-185z" />
<glyph unicode="}" horiz-adv-x="649" d="M82 -106q233 0 233 229v258q1 157 97 192v17q-96 35 -97 192v258q0 229 -233 230v172q229 0 324.5 -104.5t95.5 -309.5v-248q0 -47 27.5 -78.5t78.5 -35.5v-168q-51 -4 -78.5 -36t-27.5 -79v-248q0 -205 -95.5 -309.5t-324.5 -104.5v173z" />
<glyph unicode="~" horiz-adv-x="1296" d="M123 721q145 209 321 209q88 0 152 -37l111 -62q76 -43 137 -43q45 0 88 28t62.5 51.5t56.5 72.5l123 -106q-92 -117 -162 -171.5t-168 -54.5q-90 0 -162 41l-94 53q-78 45 -142 46q-43 0 -83.5 -24t-60 -45.5t-58.5 -66.5z" />
<glyph unicode="&#xa1;" horiz-adv-x="528" d="M123 0l18 1034h246l19 -1034h-283zM139 1180v254h250v-254h-250z" />
<glyph unicode="&#xa2;" horiz-adv-x="1050" d="M53 545q0 266 102.5 403t362.5 137h23v140h172v-140h260v-184h-260v-717h284v-184h-284v-139h-172v139h-23q-260 0 -362.5 138t-102.5 407zM301 545q0 -84 7 -138.5t30.5 -107.5t74 -81t128.5 -34v715q-78 -6 -128.5 -32.5t-74 -79t-30.5 -105.5t-7 -137z" />
<glyph unicode="&#xa3;" horiz-adv-x="1304" d="M82 780v181h125q0 272 97 372.5t286 100.5h346v-215h-236q-139 0 -181 -53.5t-42 -204.5h463v-181h-463v-463q0 -61 19.5 -81.5t81.5 -20.5h788v-215h-952q-207 0 -207 215v565h-125z" />
<glyph unicode="&#xa4;" horiz-adv-x="1232" d="M123 334l131 131q-61 96 -61 215q0 121 61 215l-129 127l145 145l127 -129q90 61 217 62q125 0 213 -62l134 133l149 -145l-135 -133q59 -111 59 -213q0 -115 -61 -213l131 -131l-146 -143l-131 129q-94 -61 -213 -62q-115 0 -215 59l-131 -133zM397 680 q0 -92 62.5 -154.5t155 -62.5t154.5 62.5t62 154.5t-62 154.5t-154.5 62.5t-155 -62.5t-62.5 -154.5z" />
<glyph unicode="&#xa5;" horiz-adv-x="1236" d="M-61 1434h290l389 -691l390 691h290l-409 -703h274v-182h-381l-28 -49v-105h409v-182h-409v-213h-271v213h-409v182h409v105l-28 49h-381v182h274z" />
<glyph unicode="&#xa6;" horiz-adv-x="389" d="M102 -129v614h185v-614h-185zM102 901v615h185v-615h-185z" />
<glyph unicode="&#xa7;" horiz-adv-x="1075" d="M123 586q0 123 76.5 202.5t195.5 79.5l-143 123q-94 78 -94 205q0 117 74.5 177.5t189.5 60.5h426v-209h-369q-29 0 -44 -2t-32.5 -16.5t-17.5 -41.5q0 -41 61 -90l379 -321q127 -109 127 -262q0 -121 -80.5 -191t-205.5 -70l129 -110q121 -106 120 -234q0 -115 -86 -178 t-202 -63h-400v209h348q113 0 113 69q0 37 -74 101l-376 321q-115 100 -115 240zM350 569q0 -70 49 -110l86 -72q49 0 78 3t73 14.5t66.5 42t22.5 79.5q0 68 -43 101l-104 82q-49 0 -77 -3.5t-69 -14.5t-61.5 -42t-20.5 -80z" />
<glyph unicode="&#xa8;" horiz-adv-x="909" d="M123 1229v221h221v-221h-221zM565 1229v221h221v-221h-221z" />
<glyph unicode="&#xa9;" horiz-adv-x="1767" d="M123 723q0 406 176 566.5t585.5 160.5t585 -161t175.5 -570q0 -406 -177.5 -570.5t-582.5 -164.5q-408 0 -585 165.5t-177 573.5zM315 723q0 -154 26 -255t89.5 -175t174 -106.5t280.5 -32.5q326 0 446.5 132t120.5 433q0 303 -123 432t-444 129q-324 0 -447 -128 t-123 -429zM489 723q0 188 70 289.5t244 101.5h352v-164h-278q-113 0 -146 -52t-33 -175t33 -175t146 -52h305v-164h-379q-172 0 -243 103.5t-71 287.5z" />
<glyph unicode="&#xaa;" horiz-adv-x="813" d="M123 1010q0 86 39 140t125 54h264v33q0 45 -18.5 63.5t-65.5 18.5h-297v115h319q197 0 197 -197v-322q0 -47 -27.5 -74.5t-74.5 -27.5h-297q-86 0 -125 55.5t-39 141.5zM133 563v127h545v-127h-545zM262.5 1010q-0.5 -80 63.5 -80h180q31 0 38 7t7 38v115h-225 q-63 0 -63.5 -80z" />
<glyph unicode="&#xab;" horiz-adv-x="1099" d="M123 575.5q0 63.5 43 124.5l280 392l164 -123l-231 -332q-25 -43 -25 -62q0 -33 25 -61l231 -332l-164 -121l-280 390q-43 61 -43 124.5zM545 575.5q0 45.5 43 104.5l225 289l164 -123l-170 -221q-25 -31 -25 -50q0 -6 25 -49l170 -245l-164 -121l-225 311 q-43 59 -43 104.5z" />
<glyph unicode="&#xac;" horiz-adv-x="1093" d="M123 561v174h848v-465h-185v291h-663z" />
<glyph unicode="&#xad;" horiz-adv-x="894" d="M82 446v211h731v-211h-731z" />
<glyph unicode="&#xae;" horiz-adv-x="1165" d="M123 1006q0 246 99.5 353t363.5 107q242 0 349 -102t107 -358q0 -252 -104.5 -357.5t-366.5 -105.5q-238 0 -343 107.5t-105 355.5zM246 1006q0 -180 67.5 -266.5t255.5 -86.5q180 0 265.5 81t85.5 272q0 186 -68 268t-262 82q-182 0 -263 -78t-81 -272zM350 778v408 q0 76 92 76h238q72 0 102.5 -40t30.5 -130q0 -147 -102 -148h-43l153 -166h-153l-123 142q-14 14 -15 51q0 53 45 53h46q39 0 51 16.5t12 51t-12.5 51t-50.5 16.5h-105q-23 0 -32 -7t-9 -34v-340h-125z" />
<glyph unicode="&#xaf;" horiz-adv-x="860" d="M82 1229v172h696v-172h-696z" />
<glyph unicode="&#xb0;" horiz-adv-x="696" d="M123 1358q0 92 66.5 158.5t158.5 66.5q90 0 157.5 -67.5t67.5 -157.5q0 -92 -66.5 -158.5t-158.5 -66.5q-94 0 -159.5 65.5t-65.5 159.5zM225 1358q0 -51 36 -87t87 -36t87 36t36 87t-36 87t-87 36t-87 -36t-36 -87z" />
<glyph unicode="&#xb1;" horiz-adv-x="1187" d="M123 137v174h942v-174h-942zM123 782v174h379v377h186v-377h377v-174h-377v-376h-186v376h-379z" />
<glyph unicode="&#xb2;" horiz-adv-x="843" d="M82 717q0 82 55 119l377 249q35 25 44 39.5t9 57.5q0 47 -20.5 66.5t-79.5 19.5h-332v166h418q109 0 159 -50.5t50 -171.5q0 -84 -21.5 -138t-81.5 -91l-286 -188q-10 -10 -11 -15q0 -8 9 -8h360v-164h-561q-88 0 -88 109z" />
<glyph unicode="&#xb3;" horiz-adv-x="806" d="M82 608v166h338q61 0 88 20.5t27 65.5t-27 65.5t-88 20.5h-320v162h312q109 0 108 82q0 80 -108 80h-318v164h418q205 0 205 -217q0 -82 -31 -128.5t-106 -56.5v-8q80 -6 112.5 -49t32.5 -137q0 -115 -45 -172.5t-160 -57.5h-438z" />
<glyph unicode="&#xb4;" horiz-adv-x="616" d="M74 1298l338 273l131 -154l-340 -270z" />
<glyph unicode="&#xb5;" horiz-adv-x="1245" d="M123 -365v1450h239v-669q0 -98 66 -172q74 -74 190 -74q111 0 183 70q82 82 82 170v675h239v-1085h-231v147q-88 -160 -275 -159q-180 0 -264 145v-498h-229z" />
<glyph unicode="&#xb6;" horiz-adv-x="1488" d="M123 1014q0 217 99.5 318.5t312.5 101.5h872v-211h-143v-1571h-220v1571h-137v-1571h-221v940h-151q-213 0 -312.5 102.5t-99.5 319.5zM350 1014q0 -119 44 -165t141 -46h151v420h-151q-96 0 -140.5 -45t-44.5 -164z" />
<glyph unicode="&#xb7;" horiz-adv-x="495" d="M123 512v264h250v-264h-250z" />
<glyph unicode="&#xb8;" horiz-adv-x="528" d="M82 -274h160q57 0 57 34q0 33 -53 33h-76q-68 0 -68 49q0 16 15 49l53 109h123l-33 -66q0 -2 -4 -8l-2 -8q0 -10 16 -10h27q68 0 108.5 -35t40.5 -109q0 -154 -167 -153h-197v115z" />
<glyph unicode="&#xb9;" horiz-adv-x="462" d="M20 1268v166h218q45 0 73.5 -29t28.5 -74v-725h-184v600q0 61 -41 62h-95z" />
<glyph unicode="&#xba;" horiz-adv-x="901" d="M123 1137q0 170 76.5 248.5t251 78.5t251 -78.5t76.5 -248.5t-76.5 -248t-251 -78t-251 78t-76.5 248zM131 580v127h639v-127h-639zM256 1136.5q0 -108.5 44 -155.5t150.5 -47t150.5 47t44 155.5t-44 156.5t-150.5 48t-150.5 -48t-44 -156.5z" />
<glyph unicode="&#xbb;" horiz-adv-x="1099" d="M123 281l170 245q25 43 24 49q0 18 -24 50l-170 221l164 123l225 -289q43 -59 43 -104.5t-43 -104.5l-225 -311zM489 182l232 332q25 29 24 61q0 18 -24 62l-232 332l164 123l281 -392q43 -61 43 -124.5t-43 -124.5l-281 -390z" />
<glyph unicode="&#xbc;" horiz-adv-x="1624" d="M123 1268v166h217q45 0 73.5 -29t28.5 -74v-725h-184v600q0 61 -41 62h-94zM248 0l731 1434h180l-731 -1434h-180zM707 252q0 63 43 106l401 430q43 49 131 50q113 0 113 -90v-480h106v-141h-106v-127h-174v127h-412q-51 0 -76.5 38t-25.5 87zM881 283q0 -14 22 -15h318 v363q0 12 -7 12q-4 0 -20 -16l-299 -324q-14 -14 -14 -20z" />
<glyph unicode="&#xbd;" horiz-adv-x="1705" d="M123 1268v166h217q45 0 73.5 -29t28.5 -74v-725h-184v600q0 61 -41 62h-94zM248 0l731 1434h180l-731 -1434h-180zM903 109q0 82 55 118l377 250q35 25 44.5 39t9.5 57q0 47 -20.5 66.5t-80.5 19.5h-332v166h418q109 0 159 -50t50 -171q0 -84 -21.5 -138t-80.5 -91 l-287 -189q-10 -10 -10 -14q0 -8 8 -8h360v-164h-561q-88 0 -88 109z" />
<glyph unicode="&#xbe;" horiz-adv-x="1910" d="M123 608v166h338q61 0 87.5 20.5t26.5 65.5t-26.5 65.5t-87.5 20.5h-320v162h312q109 0 108 82q0 80 -108 80h-318v164h418q205 0 205 -217q0 -82 -31 -128.5t-106 -56.5v-8q80 -6 112.5 -49t32.5 -137q0 -115 -45 -172.5t-160 -57.5h-438zM535 0l731 1434h180 l-731 -1434h-180zM993 252q0 63 43 106l402 430q43 49 131 50q113 0 112 -90v-480h107v-141h-107v-127h-174v127h-411q-51 0 -77 38t-26 87zM1167 283q0 -14 23 -15h317v363q0 12 -6 12q-4 0 -20 -16l-299 -324q-14 -14 -15 -20z" />
<glyph unicode="&#xbf;" horiz-adv-x="991" d="M82 352q0 113 32.5 192t143.5 146l158 96q90 53 90 136v112h250v-119q0 -90 -38 -143t-118 -100l-133 -80q-59 -33 -87 -73t-28 -124q0 -96 38 -138t124 -42h436v-215h-538q-172 0 -251 81t-79 271zM506 1180v254h250v-254h-250z" />
<glyph unicode="&#xc0;" d="M-33 0l541 1288q39 92 89 127t146 35q92 0 144.5 -36t91.5 -126l541 -1288h-285l-148 362h-690l-145 -362h-285zM467 555h551l-234 584q-23 59 -41 59t-41 -59zM467 1786l131 153l338 -272l-129 -151z" />
<glyph unicode="&#xc1;" d="M-33 0l541 1288q39 92 89 127t146 35q92 0 144.5 -36t91.5 -126l541 -1288h-285l-148 362h-690l-145 -362h-285zM467 555h551l-234 584q-23 59 -41 59t-41 -59zM528 1667l338 272l131 -153l-340 -270z" />
<glyph unicode="&#xc2;" d="M-33 0l541 1288q39 92 89 127t146 35q92 0 144.5 -36t91.5 -126l541 -1288h-285l-148 362h-690l-145 -362h-285zM346 1642l299 232q49 37 98 37q53 0 99 -37l301 -232l-107 -126l-239 190q-33 25 -52 25q-23 0 -53 -25l-239 -190zM467 555h551l-234 584q-23 59 -41 59 t-41 -59z" />
<glyph unicode="&#xc3;" d="M-33 0l541 1288q39 92 89 127t146 35q92 0 144.5 -36t91.5 -126l541 -1288h-285l-148 362h-690l-145 -362h-285zM322 1620q88 170 258 170q63 0 133 -37l82 -41q84 -39 114.5 -39t57 17.5t40 37t35.5 56.5l125 -68q-94 -182 -258 -182q-82 0 -147 35l-70 37 q-74 39 -112 39q-68 -1 -134 -99zM467 555h551l-234 584q-23 59 -41 59t-41 -59z" />
<glyph unicode="&#xc4;" d="M-33 0l541 1288q39 92 89 127t146 35q92 0 144.5 -36t91.5 -126l541 -1288h-285l-148 362h-690l-145 -362h-285zM393 1556v226h246v-226h-246zM467 555h551l-234 584q-23 59 -41 59t-41 -59zM848 1556v226h246v-226h-246z" />
<glyph unicode="&#xc5;" d="M-33 0l541 1288q39 92 89 127t146 35q92 0 144.5 -36t91.5 -126l541 -1288h-285l-148 362h-690l-145 -362h-285zM467 555h551l-234 584q-23 59 -41 59t-41 -59zM507 1730.5q0 233.5 238 233.5q121 0 178.5 -57.5t57.5 -176t-57.5 -176t-178.5 -57.5q-238 0 -238 233.5z M631 1730.5q0 -120.5 114 -120.5q113 0 113 120.5t-113 120.5q-114 0 -114 -120.5z" />
<glyph unicode="&#xc6;" horiz-adv-x="2199" d="M-41 0l801 1323q68 111 231 111h1139v-215h-768q-61 0 -81.5 -20.5t-20.5 -82.5v-276h849v-215h-849v-308q0 -61 20 -81.5t82 -20.5h776v-215h-940q-209 0 -209 215v145h-520l-207 -360h-303zM586 563h403v656q-18 -4 -28.5 -15.5t-28.5 -44.5z" />
<glyph unicode="&#xc7;" horiz-adv-x="1349" d="M82 717q0 164 26.5 286.5t92 224t188.5 154t301 52.5h576v-215h-449q-262 0 -359.5 -105.5t-97.5 -396.5t97.5 -396.5t359.5 -105.5h471v-215h-397l-33 -66q0 -2 -4 -8q-2 -6 -2 -8q0 -10 16 -10h27q68 0 108.5 -35t40.5 -109q0 -154 -167 -153h-197v115h160q57 0 57 34 q0 33 -53 33h-76q-68 0 -68 49q0 16 15 49l53 109h-78q-178 0 -301 52t-188.5 153.5t-92 224.5t-26.5 287z" />
<glyph unicode="&#xc8;" horiz-adv-x="1333" d="M123 215v1004q0 215 209 215h932v-215h-768q-61 0 -82 -20.5t-21 -82.5v-276h850v-215h-850v-308q0 -61 20.5 -81.5t82.5 -20.5h776v-215h-940q-209 0 -209 215zM432 1786l131 153l338 -272l-129 -151z" />
<glyph unicode="&#xc9;" horiz-adv-x="1333" d="M123 215v1004q0 215 209 215h932v-215h-768q-61 0 -82 -20.5t-21 -82.5v-276h850v-215h-850v-308q0 -61 20.5 -81.5t82.5 -20.5h776v-215h-940q-209 0 -209 215zM432 1667l338 272l131 -153l-340 -270z" />
<glyph unicode="&#xca;" horiz-adv-x="1333" d="M123 215v1004q0 215 209 215h932v-215h-768q-61 0 -82 -20.5t-21 -82.5v-276h850v-215h-850v-308q0 -61 20.5 -81.5t82.5 -20.5h776v-215h-940q-209 0 -209 215zM305 1642l299 232q49 37 98 37q53 0 99 -37l301 -232l-107 -126l-239 190q-33 25 -51 25q-23 0 -54 -25 l-239 -190z" />
<glyph unicode="&#xcb;" horiz-adv-x="1333" d="M123 215v1004q0 215 209 215h932v-215h-768q-61 0 -82 -20.5t-21 -82.5v-276h850v-215h-850v-308q0 -61 20.5 -81.5t82.5 -20.5h776v-215h-940q-209 0 -209 215zM352 1556v226h246v-226h-246zM807 1556v226h246v-226h-246z" />
<glyph unicode="&#xcc;" horiz-adv-x="516" d="M23 1786l131 153l338 -272l-130 -151zM123 0v1434h270v-1434h-270z" />
<glyph unicode="&#xcd;" horiz-adv-x="516" d="M23 1667l337 272l132 -153l-340 -270zM123 0v1434h270v-1434h-270z" />
<glyph unicode="&#xce;" horiz-adv-x="516" d="M-141 1642l299 232q49 37 98 37q53 0 98 -37l301 -232l-106 -126l-240 190q-33 25 -51 25q-23 0 -53 -25l-240 -190zM123 0v1434h270v-1434h-270z" />
<glyph unicode="&#xcf;" horiz-adv-x="540" d="M-61 1556v226h237v-226h-237zM135 0v1434h271v-1434h-271zM365 1556v226h237v-226h-237z" />
<glyph unicode="&#xd0;" horiz-adv-x="1574" d="M0 616v191h164v412q0 215 209 215h555q141 0 245.5 -42t165 -108.5t96 -165t47 -191.5t11.5 -210q0 -115 -11.5 -209t-45 -192.5t-90 -165t-153.5 -108.5t-228 -42h-592q-209 0 -209 215v401h-164zM434 317q0 -61 20.5 -81.5t82.5 -20.5h297q119 0 196.5 36t116.5 109.5 t53 155.5t14 201t-14 200.5t-53 155.5t-116.5 110t-196.5 36h-297q-61 0 -82 -20.5t-21 -82.5v-309h299v-191h-299v-299z" />
<glyph unicode="&#xd1;" horiz-adv-x="1617" d="M123 0v1255q0 92 58.5 143.5t160.5 51.5q158 0 227 -113l609 -960q2 -4 6 -11.5t7 -11.5t8 -8t11 -4q23 0 23 35v1057h262v-1248q0 -102 -59.5 -152t-153.5 -50q-156 0 -231 120l-605 955q-25 35 -32 35q-29 0 -29 -41v-1053h-262zM385 1620q88 170 258 170q63 0 133 -37 l82 -41q84 -39 115 -39t57.5 17.5t39.5 37t36 56.5l125 -68q-94 -182 -258 -182q-82 0 -148 35l-69 37q-74 39 -113 39q-67 -1 -133 -99z" />
<glyph unicode="&#xd2;" horiz-adv-x="1636" d="M82 717q0 219 39 359.5t131 224t225 116.5t340 33q209 0 342 -33t225.5 -116.5t131 -224t38.5 -359.5t-38.5 -359.5t-131 -224.5t-225.5 -116.5t-342 -32.5q-207 0 -340 32.5t-225 116.5t-131 224.5t-39 359.5zM360 717q0 -305 95.5 -411.5t361.5 -106.5t362.5 106.5 t96.5 411.5t-96.5 411.5t-362.5 106.5t-361.5 -106.5t-95.5 -411.5zM584 1786l131 153l338 -272l-129 -151z" />
<glyph unicode="&#xd3;" horiz-adv-x="1636" d="M82 717q0 219 39 359.5t131 224t225 116.5t340 33q209 0 342 -33t225.5 -116.5t131 -224t38.5 -359.5t-38.5 -359.5t-131 -224.5t-225.5 -116.5t-342 -32.5q-207 0 -340 32.5t-225 116.5t-131 224.5t-39 359.5zM360 717q0 -305 95.5 -411.5t361.5 -106.5t362.5 106.5 t96.5 411.5t-96.5 411.5t-362.5 106.5t-361.5 -106.5t-95.5 -411.5zM584 1667l338 272l131 -153l-340 -270z" />
<glyph unicode="&#xd4;" horiz-adv-x="1636" d="M82 717q0 219 39 359.5t131 224t225 116.5t340 33q209 0 342 -33t225.5 -116.5t131 -224t38.5 -359.5t-38.5 -359.5t-131 -224.5t-225.5 -116.5t-342 -32.5q-207 0 -340 32.5t-225 116.5t-131 224.5t-39 359.5zM360 717q0 -305 95.5 -411.5t361.5 -106.5t362.5 106.5 t96.5 411.5t-96.5 411.5t-362.5 106.5t-361.5 -106.5t-95.5 -411.5zM420 1642l299 232q49 37 98 37q53 0 98 -37l302 -232l-107 -126l-240 190q-33 25 -51 25q-23 0 -53 -25l-240 -190z" />
<glyph unicode="&#xd5;" horiz-adv-x="1636" d="M82 717q0 219 39 359.5t131 224t225 116.5t340 33q209 0 342 -33t225.5 -116.5t131 -224t38.5 -359.5t-38.5 -359.5t-131 -224.5t-225.5 -116.5t-342 -32.5q-207 0 -340 32.5t-225 116.5t-131 224.5t-39 359.5zM360 717q0 -305 95.5 -411.5t361.5 -106.5t362.5 106.5 t96.5 411.5t-96.5 411.5t-362.5 106.5t-361.5 -106.5t-95.5 -411.5zM395 1620q88 170 258 170q63 0 133 -37l82 -41q84 -39 115 -39t57.5 17.5t40 37t35.5 56.5l125 -68q-94 -182 -258 -182q-82 0 -147 35l-70 37q-74 39 -113 39q-67 -1 -133 -99z" />
<glyph unicode="&#xd6;" horiz-adv-x="1636" d="M82 717q0 219 39 359.5t131 224t225 116.5t340 33q209 0 342 -33t225.5 -116.5t131 -224t38.5 -359.5t-38.5 -359.5t-131 -224.5t-225.5 -116.5t-342 -32.5q-207 0 -340 32.5t-225 116.5t-131 224.5t-39 359.5zM360 717q0 -305 95.5 -411.5t361.5 -106.5t362.5 106.5 t96.5 411.5t-96.5 411.5t-362.5 106.5t-361.5 -106.5t-95.5 -411.5zM467 1556v226h246v-226h-246zM922 1556v226h245v-226h-245z" />
<glyph unicode="&#xd7;" horiz-adv-x="1183" d="M174 393l287 287l-285 283l131 131l285 -283l287 287l133 -133l-289 -285l285 -285l-131 -131l-285 283l-287 -287z" />
<glyph unicode="&#xd8;" horiz-adv-x="1638" d="M72 53l133 131q-123 162 -123 533q0 219 39 359.5t131 224t225 116.5t340 33q373 0 533 -119l137 135l80 -80l-137 -137q125 -164 124 -532q0 -219 -38.5 -359.5t-131 -224.5t-225.5 -116.5t-342 -32.5q-377 0 -532 120l-133 -133zM360 717q0 -225 46 -332l757 760 q-98 90 -346 90q-266 0 -361.5 -106.5t-95.5 -411.5zM471 291q94 -92 346 -92q266 0 362.5 106.5t96.5 411.5q0 219 -47 332z" />
<glyph unicode="&#xd9;" horiz-adv-x="1490" d="M123 520v914h270v-914q0 -168 84 -244.5t268.5 -76.5t268.5 76.5t84 244.5v914h270v-914q0 -293 -156.5 -414.5t-466 -121.5t-466 121.5t-156.5 414.5zM489 1786l132 153l337 -272l-129 -151z" />
<glyph unicode="&#xda;" horiz-adv-x="1490" d="M123 520v914h270v-914q0 -168 84 -244.5t268.5 -76.5t268.5 76.5t84 244.5v914h270v-914q0 -293 -156.5 -414.5t-466 -121.5t-466 121.5t-156.5 414.5zM510 1667l338 272l131 -153l-340 -270z" />
<glyph unicode="&#xdb;" horiz-adv-x="1490" d="M123 520v914h270v-914q0 -168 84 -244.5t268.5 -76.5t268.5 76.5t84 244.5v914h270v-914q0 -293 -156.5 -414.5t-466 -121.5t-466 121.5t-156.5 414.5zM346 1642l299 232q49 37 98 37q53 0 99 -37l301 -232l-107 -126l-239 190q-33 25 -52 25q-23 0 -53 -25l-239 -190z " />
<glyph unicode="&#xdc;" horiz-adv-x="1490" d="M123 520v914h270v-914q0 -168 84 -244.5t268.5 -76.5t268.5 76.5t84 244.5v914h270v-914q0 -293 -156.5 -414.5t-466 -121.5t-466 121.5t-156.5 414.5zM395 1556v226h246v-226h-246zM850 1556v226h246v-226h-246z" />
<glyph unicode="&#xdd;" horiz-adv-x="1400" d="M-41 1434h291l450 -752l451 752h291l-606 -996v-438h-271v438zM485 1667l338 272l131 -153l-340 -270z" />
<glyph unicode="&#xde;" horiz-adv-x="1490" d="M123 0v1434h270v-236h672q201 0 272.5 -109.5t71.5 -330.5t-71.5 -332t-272.5 -111h-672v-315h-270zM393 530h533q129 0 166.5 53.5t37.5 174.5t-37.5 173t-166.5 52h-533v-453z" />
<glyph unicode="&#xdf;" horiz-adv-x="1234" d="M123 0v899q0 262 127 404.5t420 142.5q207 0 310 -83t103 -276q0 -260 -192 -288v-8q262 -20 262 -375q0 -211 -82 -313.5t-287 -102.5h-209v182h109q121 0 171 59.5t50 199t-49 196.5t-172 57h-102v176h90q166 0 166 201q0 199 -189 199q-287 0 -287 -326v-944h-239z " />
<glyph unicode="&#xe0;" horiz-adv-x="1157" d="M61 338q0 158 68 248t203 90h491v69q0 156 -151 156h-531v184h617q150 0 227.5 -88t77.5 -231v-582q0 -184 -184 -184h-547q-270 0 -271 338zM309 338q0 -154 115 -154h338q61 0 61 62v246h-399q-115 0 -115 -154zM342 1417l131 154l338 -273l-129 -151z" />
<glyph unicode="&#xe1;" horiz-adv-x="1157" d="M61 338q0 158 68 248t203 90h491v69q0 156 -151 156h-531v184h617q150 0 227.5 -88t77.5 -231v-582q0 -184 -184 -184h-547q-270 0 -271 338zM309 338q0 -154 115 -154h338q61 0 61 62v246h-399q-115 0 -115 -154zM342 1298l338 273l131 -154l-340 -270z" />
<glyph unicode="&#xe2;" horiz-adv-x="1157" d="M61 338q0 158 68 248t203 90h491v69q0 156 -151 156h-531v184h617q150 0 227.5 -88t77.5 -231v-582q0 -184 -184 -184h-547q-270 0 -271 338zM182 1274l295 231q47 37 98 37q47 0 99 -37l297 -231l-103 -127l-239 199q-27 20 -51 20q-27 0 -54 -20l-239 -199zM309 338 q0 -154 115 -154h338q61 0 61 62v246h-399q-115 0 -115 -154z" />
<glyph unicode="&#xe3;" horiz-adv-x="1157" d="M61 338q0 158 68 248t203 90h491v69q0 156 -151 156h-531v184h617q150 0 227.5 -88t77.5 -231v-582q0 -184 -184 -184h-547q-270 0 -271 338zM174 1266q39 76 101.5 123t136.5 47q63 0 133 -37l82 -41q84 -39 114 -39q47 0 77 27.5t56 83.5l105 -68q-41 -78 -103.5 -130 t-134.5 -52q-82 0 -147 34l-70 37q-74 39 -112 39q-80 0 -133 -98zM309 338q0 -154 115 -154h338q61 0 61 62v246h-399q-115 0 -115 -154z" />
<glyph unicode="&#xe4;" horiz-adv-x="1157" d="M61 338q0 158 68 248t203 90h491v69q0 156 -151 156h-531v184h617q150 0 227.5 -88t77.5 -231v-582q0 -184 -184 -184h-547q-270 0 -271 338zM244 1229v221h221v-221h-221zM309 338q0 -154 115 -154h338q61 0 61 62v246h-399q-115 0 -115 -154zM686 1229v221h221v-221 h-221z" />
<glyph unicode="&#xe5;" horiz-adv-x="1157" d="M61 338q0 158 68 248t203 90h491v69q0 156 -151 156h-531v184h617q150 0 227.5 -88t77.5 -231v-582q0 -184 -184 -184h-547q-270 0 -271 338zM309 338q0 -154 115 -154h338q61 0 61 62v246h-399q-115 0 -115 -154zM340 1380.5q0 233.5 238 233.5q121 0 178 -57.5t57 -176 t-57.5 -176t-177.5 -57.5q-238 0 -238 233.5zM463 1380.5q0 -120.5 115 -120.5q113 0 112.5 120.5t-112.5 120.5q-115 0 -115 -120.5z" />
<glyph unicode="&#xe6;" horiz-adv-x="1914" d="M53 330q0 158 67.5 243.5t203.5 85.5h491v70q0 80 -39 126t-112 46h-531v184h596q143 0 234 -96q127 109 376 109q256 0 389.5 -89t133.5 -333q0 -201 -168 -201h-631q0 -143 46 -217t187 -74h531v-184h-623q-154 0 -229 74q-39 -74 -146 -74h-505q-139 0 -205 81 t-66 249zM301 330q0 -78 26.5 -112t88.5 -34h338q61 0 61 62v229h-399q-61 0 -88 -33.5t-27 -111.5zM1063 659h498q53 0 53 60q0 100 -78 147t-197 47q-154 0 -215 -57.5t-61 -196.5z" />
<glyph unicode="&#xe7;" horiz-adv-x="1050" d="M53 545q0 266 102.5 403t362.5 137h455v-184h-395q-74 0 -125.5 -18.5t-81 -47t-46 -77.5t-20.5 -96.5t-4 -116.5q0 -88 8 -144.5t35 -110.5t85 -80t149 -26h419v-184h-303l-32 -66q0 -2 -5 -8q-2 -6 -2 -8q0 -10 17 -10h26q68 0 109 -35t41 -109q0 -154 -168 -153h-197 v115h160q57 0 57 34q0 33 -53 33h-76q-68 0 -67 49q0 16 14 49l53 109h-53q-260 0 -362.5 138t-102.5 407z" />
<glyph unicode="&#xe8;" horiz-adv-x="1169" d="M61 545q0 315 120 434t405 119q254 0 388 -93.5t134 -336.5q0 -205 -168 -205h-631q0 -141 46 -210t188 -69h530v-184h-602q-127 0 -210 35t-126 109.5t-58.5 166.5t-15.5 234zM309 647h498q53 0 53 64q0 100 -79 151t-195 51q-152 0 -214.5 -62.5t-62.5 -203.5z M350 1417l131 154l338 -273l-129 -151z" />
<glyph unicode="&#xe9;" horiz-adv-x="1169" d="M61 545q0 315 120 434t405 119q254 0 388 -93.5t134 -336.5q0 -205 -168 -205h-631q0 -141 46 -210t188 -69h530v-184h-602q-127 0 -210 35t-126 109.5t-58.5 166.5t-15.5 234zM309 647h498q53 0 53 64q0 100 -79 151t-195 51q-152 0 -214.5 -62.5t-62.5 -203.5z M350 1298l338 273l131 -154l-340 -270z" />
<glyph unicode="&#xea;" horiz-adv-x="1169" d="M61 545q0 315 120 434t405 119q254 0 388 -93.5t134 -336.5q0 -205 -168 -205h-631q0 -141 46 -210t188 -69h530v-184h-602q-127 0 -210 35t-126 109.5t-58.5 166.5t-15.5 234zM190 1274l295 231q47 37 99 37q47 0 98 -37l297 -231l-102 -127l-240 199q-27 20 -51 20 q-27 0 -54 -20l-239 -199zM309 647h498q53 0 53 64q0 100 -79 151t-195 51q-152 0 -214.5 -62.5t-62.5 -203.5z" />
<glyph unicode="&#xeb;" horiz-adv-x="1169" d="M61 545q0 315 120 434t405 119q254 0 388 -93.5t134 -336.5q0 -205 -168 -205h-631q0 -141 46 -210t188 -69h530v-184h-602q-127 0 -210 35t-126 109.5t-58.5 166.5t-15.5 234zM252 1229v221h221v-221h-221zM309 647h498q53 0 53 64q0 100 -79 151t-195 51 q-152 0 -214.5 -62.5t-62.5 -203.5zM694 1229v221h221v-221h-221z" />
<glyph unicode="&#xec;" horiz-adv-x="403" d="M-33 1417l131 154l338 -273l-129 -151zM82 0v1085h240v-1085h-240z" />
<glyph unicode="&#xed;" horiz-adv-x="403" d="M-33 1298l338 273l131 -154l-340 -270zM82 0v1085h240v-1085h-240z" />
<glyph unicode="&#xee;" horiz-adv-x="403" d="M-193 1274l295 231q47 37 99 37q47 0 98 -37l297 -231l-102 -127l-240 199q-27 20 -51 20q-27 0 -53 -20l-240 -199zM82 0v1085h240v-1085h-240z" />
<glyph unicode="&#xef;" horiz-adv-x="436" d="M-29 1229v221h193v-221h-193zM98 0v1085h240v-1085h-240zM272 1229v221h193v-221h-193z" />
<glyph unicode="&#xf0;" horiz-adv-x="1150" d="M82 545q0 266 98.5 403t345.5 137h324q-2 104 -55 162l-168 -86l-62 109l137 69q-63 41 -155 50l24 129q152 -12 285 -101l152 78l65 -106l-117 -60q133 -152 134 -389v-756q0 -184 -185 -184h-379q-246 0 -345 139.5t-99 405.5zM330 545q0 -88 8 -144.5t32.5 -110.5 t78 -80t137.5 -26h202q61 0 62 62v655h-264q-84 0 -137.5 -24.5t-78 -78t-32.5 -109.5t-8 -144z" />
<glyph unicode="&#xf1;" horiz-adv-x="1175" d="M94 0v901q0 184 185 184h380q201 0 311.5 -83.5t110.5 -286.5v-715h-239v651q0 127 -53.5 188.5t-174.5 61.5h-219q-61 0 -61 -61v-840h-240zM184 1266q39 76 101.5 123t136.5 47q63 0 133 -37l82 -41q84 -39 115 -39q47 0 76.5 27.5t56.5 83.5l104 -68 q-41 -78 -103.5 -130t-133.5 -52q-82 0 -148 34l-69 37q-74 39 -113 39q-80 0 -133 -98z" />
<glyph unicode="&#xf2;" horiz-adv-x="1277" d="M61 545q0 311 137.5 432t440.5 121t440.5 -121t137.5 -432q0 -315 -136.5 -436t-441.5 -121t-441.5 120.5t-136.5 436.5zM309 545q0 -203 74 -288t256 -85t256 85t74 288q0 201 -74 284.5t-256 83.5t-256 -83.5t-74 -284.5zM403 1417l132 154l337 -273l-129 -151z" />
<glyph unicode="&#xf3;" horiz-adv-x="1277" d="M61 545q0 311 137.5 432t440.5 121t440.5 -121t137.5 -432q0 -315 -136.5 -436t-441.5 -121t-441.5 120.5t-136.5 436.5zM309 545q0 -203 74 -288t256 -85t256 85t74 288q0 201 -74 284.5t-256 83.5t-256 -83.5t-74 -284.5zM403 1298l338 273l131 -154l-340 -270z" />
<glyph unicode="&#xf4;" horiz-adv-x="1277" d="M61 545q0 311 137.5 432t440.5 121t440.5 -121t137.5 -432q0 -315 -136.5 -436t-441.5 -121t-441.5 120.5t-136.5 436.5zM244 1274l295 231q47 37 98 37q47 0 98 -37l297 -231l-102 -127l-240 199q-27 20 -51 20q-27 0 -53 -20l-240 -199zM309 545q0 -203 74 -288 t256 -85t256 85t74 288q0 201 -74 284.5t-256 83.5t-256 -83.5t-74 -284.5z" />
<glyph unicode="&#xf5;" horiz-adv-x="1277" d="M61 545q0 311 137.5 432t440.5 121t440.5 -121t137.5 -432q0 -315 -136.5 -436t-441.5 -121t-441.5 120.5t-136.5 436.5zM236 1266q39 76 101 123t136 47q63 0 133 -37l82 -41q84 -39 115 -39q47 0 76.5 27.5t56.5 83.5l104 -68q-41 -78 -103.5 -130t-133.5 -52 q-82 0 -148 34l-69 37q-74 39 -113 39q-80 0 -133 -98zM309 545q0 -203 74 -288t256 -85t256 85t74 288q0 201 -74 284.5t-256 83.5t-256 -83.5t-74 -284.5z" />
<glyph unicode="&#xf6;" horiz-adv-x="1277" d="M61 545q0 311 137.5 432t440.5 121t440.5 -121t137.5 -432q0 -315 -136.5 -436t-441.5 -121t-441.5 120.5t-136.5 436.5zM307 1229v221h221v-221h-221zM309 545q0 -203 74 -288t256 -85t256 85t74 288q0 201 -74 284.5t-256 83.5t-256 -83.5t-74 -284.5zM750 1229v221 h221v-221h-221z" />
<glyph unicode="&#xf7;" horiz-adv-x="1187" d="M123 561v174h942v-174h-942zM469 119v258h250v-258h-250zM469 920v258h250v-258h-250z" />
<glyph unicode="&#xf8;" horiz-adv-x="1253" d="M41 45l109 107q-96 127 -97 393q0 311 137.5 432t440.5 121q266 0 397 -88l111 108l73 -78l-104 -102q100 -127 100 -393q0 -315 -136 -436t-441 -121q-270 0 -404 90l-110 -109zM301 545q0 -139 31 -215l532 520q-76 63 -233 63q-182 0 -256 -83.5t-74 -284.5zM393 240 q74 -68 238 -68q182 0 256 85t74 288q0 137 -33 217z" />
<glyph unicode="&#xf9;" horiz-adv-x="1191" d="M94 371v714h240v-651q0 -127 53 -188.5t174 -61.5h236q61 0 61 62v839h240v-901q0 -184 -185 -184h-397q-201 0 -311.5 84t-110.5 287zM340 1417l131 154l338 -273l-129 -151z" />
<glyph unicode="&#xfa;" horiz-adv-x="1191" d="M94 371v714h240v-651q0 -127 53 -188.5t174 -61.5h236q61 0 61 62v839h240v-901q0 -184 -185 -184h-397q-201 0 -311.5 84t-110.5 287zM381 1298l338 273l131 -154l-340 -270z" />
<glyph unicode="&#xfb;" horiz-adv-x="1191" d="M94 371v714h240v-651q0 -127 53 -188.5t174 -61.5h236q61 0 61 62v839h240v-901q0 -184 -185 -184h-397q-201 0 -311.5 84t-110.5 287zM201 1274l295 231q47 37 98 37q47 0 98 -37l297 -231l-102 -127l-240 199q-27 20 -51 20q-27 0 -53 -20l-240 -199z" />
<glyph unicode="&#xfc;" horiz-adv-x="1191" d="M94 371v714h240v-651q0 -127 53 -188.5t174 -61.5h236q61 0 61 62v839h240v-901q0 -184 -185 -184h-397q-201 0 -311.5 84t-110.5 287zM264 1229v221h221v-221h-221zM707 1229v221h221v-221h-221z" />
<glyph unicode="&#xfd;" horiz-adv-x="1167" d="M-20 1085h247l348 -833l369 833h244l-647 -1435h-244l166 354zM369 1298l338 273l131 -154l-340 -270z" />
<glyph unicode="&#xfe;" horiz-adv-x="1212" d="M123 -348v1782h239v-349h324q248 0 346 -137t98 -403t-99 -405.5t-345 -139.5h-324v-348h-239zM362 184h265q158 0 207 90.5t49 270.5q0 88 -8.5 144t-33 109.5t-77.5 78t-137 24.5h-265v-717z" />
<glyph unicode="&#xff;" horiz-adv-x="1167" d="M-20 1085h247l348 -833l369 833h244l-647 -1435h-244l166 354zM252 1229v221h221v-221h-221zM694 1229v221h221v-221h-221z" />
<glyph unicode="&#x152;" horiz-adv-x="2494" d="M82 717q0 219 39 359.5t131 224t225 116.5t340 33q391 0 526 -143q12 70 53.5 98.5t116.5 28.5h912v-215h-768q-61 0 -82 -20.5t-21 -82.5v-276h850v-215h-850v-308q0 -61 20.5 -81.5t82.5 -20.5h776v-215h-920q-76 0 -116.5 28.5t-53.5 96.5q-133 -141 -526 -141 q-207 0 -340 32.5t-225 116.5t-131 224.5t-39 359.5zM360 717q0 -305 95.5 -411.5t361.5 -106.5t362.5 106.5t96.5 411.5t-96.5 411.5t-362.5 106.5t-361.5 -106.5t-95.5 -411.5z" />
<glyph unicode="&#x153;" horiz-adv-x="2060" d="M53 545q0 311 137.5 432t440.5 121q322 0 440 -170q102 170 414 170q254 0 388 -93.5t134 -336.5q0 -205 -168 -205h-631q0 -141 46 -210t188 -69h530v-184h-602q-217 0 -299 141q-121 -154 -440 -153q-305 0 -441.5 120.5t-136.5 436.5zM301 545q0 -203 74 -288t256 -85 t256 85t74 288q0 201 -74 284.5t-256 83.5t-256 -83.5t-74 -284.5zM1208 647h498q53 0 53 64q0 100 -78.5 151t-195.5 51q-152 0 -214.5 -62.5t-62.5 -203.5z" />
<glyph unicode="&#x178;" horiz-adv-x="1400" d="M-41 1434h291l450 -752l451 752h291l-606 -996v-438h-271v438zM350 1556v226h246v-226h-246zM805 1556v226h246v-226h-246z" />
<glyph unicode="&#x2c6;" horiz-adv-x="935" d="M74 1274l295 231q47 37 98 37q47 0 98 -37l297 -231l-102 -127l-240 199q-27 20 -51 20q-27 0 -53 -20l-240 -199z" />
<glyph unicode="&#x2dc;" horiz-adv-x="968" d="M82 1266q39 76 101.5 123t135.5 47q63 0 134 -37l82 -41q84 -39 114 -39q47 0 77 27.5t56 83.5l105 -68q-41 -78 -103.5 -130t-134.5 -52q-82 0 -147 34l-70 37q-74 39 -113 39q-80 0 -133 -98z" />
<glyph unicode="&#x2000;" horiz-adv-x="982" />
<glyph unicode="&#x2001;" horiz-adv-x="1964" />
<glyph unicode="&#x2002;" horiz-adv-x="982" />
<glyph unicode="&#x2003;" horiz-adv-x="1964" />
<glyph unicode="&#x2004;" horiz-adv-x="654" />
<glyph unicode="&#x2005;" horiz-adv-x="491" />
<glyph unicode="&#x2006;" horiz-adv-x="327" />
<glyph unicode="&#x2007;" horiz-adv-x="327" />
<glyph unicode="&#x2008;" horiz-adv-x="245" />
<glyph unicode="&#x2009;" horiz-adv-x="392" />
<glyph unicode="&#x200a;" horiz-adv-x="109" />
<glyph unicode="&#x2010;" horiz-adv-x="894" d="M82 446v211h731v-211h-731z" />
<glyph unicode="&#x2011;" horiz-adv-x="894" d="M82 446v211h731v-211h-731z" />
<glyph unicode="&#x2012;" horiz-adv-x="894" d="M82 446v211h731v-211h-731z" />
<glyph unicode="&#x2013;" horiz-adv-x="1171" d="M82 446v211h1008v-211h-1008z" />
<glyph unicode="&#x2014;" horiz-adv-x="2144" d="M82 446v211h1980v-211h-1980z" />
<glyph unicode="&#x2018;" horiz-adv-x="595" d="M123 1403l178 108l274 -401l-194 -119z" />
<glyph unicode="&#x2019;" horiz-adv-x="534" d="M0 1100l258 411l195 -118l-275 -402z" />
<glyph unicode="&#x201a;" horiz-adv-x="575" d="M0 -129l260 412l193 -119l-275 -402z" />
<glyph unicode="&#x201c;" horiz-adv-x="1013" d="M20 1403l179 108l272 -401l-192 -119zM438 1403l178 108l275 -401l-193 -119z" />
<glyph unicode="&#x201d;" horiz-adv-x="1013" d="M20 1100l261 411l192 -118l-274 -402zM440 1100l258 411l193 -118l-275 -402z" />
<glyph unicode="&#x201e;" horiz-adv-x="993" d="M0 -129l258 412l193 -119l-273 -402zM418 -129l260 412l192 -119l-274 -402z" />
<glyph unicode="&#x2022;" horiz-adv-x="1009" d="M123 715q0 158 111.5 269.5t271.5 111.5q158 0 269.5 -112t111.5 -269q0 -156 -112.5 -269.5t-268.5 -113.5q-158 0 -270.5 113.5t-112.5 269.5z" />
<glyph unicode="&#x2026;" horiz-adv-x="1359" d="M123 0v264h250v-264h-250zM555 0v264h250v-264h-250zM987 0v264h250v-264h-250z" />
<glyph unicode="&#x202f;" horiz-adv-x="392" />
<glyph unicode="&#x2030;" horiz-adv-x="2428" d="M102 1102q0 178 74 261t264.5 83t264 -83t73.5 -261q0 -180 -72.5 -262t-265 -82t-265.5 82t-73 262zM291 1102q0 -98 30.5 -142.5t118.5 -44.5t119 44.5t31 142.5t-31 142t-119 44t-118.5 -44t-30.5 -142zM385 0l731 1434h180l-731 -1434h-180zM895 332q0 178 73.5 261 t264 83t264.5 -83t74 -261q0 -180 -73 -262t-265.5 -82t-265 82t-72.5 262zM1083 331.5q0 -98.5 31 -142.5t119 -44t118.5 44t30.5 142.5t-30.5 142.5t-118.5 44t-119 -44t-31 -142.5zM1651 332q0 178 73.5 261t264 83t264.5 -83t74 -261q0 -180 -73 -262t-265.5 -82 t-265 82t-72.5 262zM1839 331.5q0 -98.5 31 -142.5t119 -44t118.5 44t30.5 142.5t-30.5 142.5t-118.5 44t-119 -44t-31 -142.5z" />
<glyph unicode="&#x2039;" horiz-adv-x="733" d="M123 575.5q0 63.5 43 124.5l280 392l164 -123l-231 -332q-25 -43 -25 -62q0 -33 25 -61l231 -332l-164 -121l-280 390q-43 61 -43 124.5z" />
<glyph unicode="&#x203a;" horiz-adv-x="733" d="M123 182l231 332q25 29 25 61q0 18 -25 62l-231 332l164 123l280 -392q43 -61 43 -124.5t-43 -124.5l-280 -390z" />
<glyph unicode="&#x2044;" horiz-adv-x="1038" d="M0 -340l897 1856h141l-897 -1856h-141z" />
<glyph unicode="&#x205f;" horiz-adv-x="491" />
<glyph unicode="&#x20ac;" horiz-adv-x="1437" d="M82 459v182h133q-2 25 -2 76t2 78h-133v182h151q20 111 54.5 187.5t94.5 141t158.5 96.5t237.5 32h576v-215h-449q-193 0 -279.5 -53.5t-107.5 -188.5h684v-182h-708q-2 -25 -2 -78t2 -76h589v-182h-565q20 -137 107.5 -190.5t279.5 -53.5h471v-215h-598 q-139 0 -238.5 31.5t-160 96.5t-93 142.5t-53.5 188.5h-151z" />
<glyph unicode="&#x2116;" horiz-adv-x="2230" d="M123 0v1255q0 20 2 38t13.5 48.5t30.5 53t60 39t97 16.5q150 0 213 -113l534 -960q18 -35 29 -35q14 0 14 39v1053h246v-1248q0 -68 -22.5 -112.5t-60.5 -62t-62.5 -22.5t-49.5 -5q-156 0 -223 120l-528 955q-14 35 -27 35q-20 0 -20 -45v-1049h-246zM1493 1122 q0 178 63.5 251t254 73t254 -73t63.5 -251q0 -180 -62.5 -251.5t-255 -71.5t-255 71.5t-62.5 251.5zM1513 539v168h594v-168h-594zM1681 1122q0 -45 3.5 -69.5t15.5 -50t38.5 -36t71.5 -10.5t72 10.5t39 36t15 50t3 69.5t-3 70t-15 50.5t-39 35.5t-72 10t-71.5 -10 t-38.5 -35.5t-15.5 -50.5t-3.5 -70z" />
<glyph unicode="&#x2122;" horiz-adv-x="2189" d="M61 1251v185h805v-185h-291v-641h-223v641h-291zM975 610v729q0 47 43 77t131 30q184 0 209 -86l141 -496q12 -27 20.5 -26.5t20.5 26.5l141 496q25 86 209 86q88 0 132 -30t44 -77v-729h-215v615q0 23 -16 22q-15 1 -23 -24l-159 -529q-35 -92 -133.5 -92t-133.5 92 l-157 529q-8 25 -23 24q-16 0 -16 -22v-615h-215z" />
<glyph unicode="&#x25fc;" horiz-adv-x="1085" d="M0 0v1085h1085v-1085h-1085z" />
<glyph unicode="&#xf6ba;" horiz-adv-x="894" d="M82 618v211h731v-211h-731z" />
<glyph unicode="&#xf6bb;" horiz-adv-x="1171" d="M82 618v211h1008v-211h-1008z" />
<glyph unicode="&#xf6bc;" horiz-adv-x="2144" d="M82 618v211h1980v-211h-1980z" />
</font>
</defs>
</svg>
